<svg width="864" height="372" viewBox="0 0 864 372" fill="none" xmlns="http://www.w3.org/2000/svg">
<path d="M228.481 364.126H168.653V283.152H0.000279893V227.45L168.653 7.73637H228.481V232.607H278.51V283.152H228.481V364.126ZM168.653 82.0056L53.1234 232.607H168.653V82.0056ZM431.167 371.862C330.594 371.862 287.786 287.278 287.786 186.189C287.786 85.1002 330.594 -6.09436e-06 431.167 -6.09436e-06C531.739 -6.09436e-06 574.547 85.1002 574.547 186.189C574.547 287.278 531.739 371.862 431.167 371.862ZM431.167 320.802C494.089 320.802 514.719 260.458 514.719 186.189C514.719 111.92 494.089 51.0601 431.167 51.0601C368.244 51.0601 347.098 111.92 347.098 186.189C347.098 260.458 368.244 320.802 431.167 320.802ZM813.787 364.126H753.959V283.152H585.306V227.45L753.959 7.73637H813.787V232.607H863.816V283.152H813.787V364.126ZM753.959 82.0056L638.429 232.607H753.959V82.0056Z" fill="black" fill-opacity="0.1"/>
</svg>
