<svg width="1308" height="192" viewBox="0 0 1308 192" fill="none" xmlns="http://www.w3.org/2000/svg">
<path d="M66.3389 192L0.330808 0.363691H20.6922L79.1146 169.776L137.936 0.363691H158.298L92.2896 192H66.3389ZM170.279 192V0.363691H290.052V19.1281H189.842V85.4023H274.082V104.167H189.842V173.236H290.052V192H170.279ZM314.089 192V0.363691H388.082C389.946 0.363691 392.03 0.45241 394.337 0.629849C396.733 0.718574 399.128 0.984737 401.524 1.42834C411.549 2.93658 420.022 6.44104 426.942 11.9417C433.951 17.3537 439.23 24.1852 442.779 32.4362C446.416 40.6872 448.235 49.8254 448.235 59.8508C448.235 74.3122 444.42 86.8662 436.79 97.5127C429.16 108.159 418.247 114.858 404.052 117.608L397.265 119.205H333.652V192H314.089ZM430.136 192L392.341 114.015L411.105 106.828L452.627 192H430.136ZM333.652 100.574H387.55C389.147 100.574 391.01 100.485 393.139 100.307C395.269 100.13 397.354 99.8194 399.394 99.3758C405.96 97.9563 411.327 95.2503 415.497 91.2579C419.756 87.2654 422.905 82.5189 424.946 77.0182C427.075 71.5175 428.14 65.7951 428.14 59.8508C428.14 53.9065 427.075 48.184 424.946 42.6834C422.905 37.094 419.756 32.3031 415.497 28.3107C411.327 24.3182 405.96 21.6123 399.394 20.1927C397.354 19.7491 395.269 19.483 393.139 19.3942C391.01 19.2168 389.147 19.1281 387.55 19.1281H333.652V100.574ZM474.015 192V0.363691H532.171C534.212 0.363691 537.672 0.408053 542.552 0.496778C547.52 0.585492 552.267 0.94037 556.791 1.56141C571.342 3.60198 583.496 9.01394 593.256 17.7973C603.015 26.5806 610.334 37.7594 615.214 51.3336C620.093 64.9079 622.533 79.8573 622.533 96.1818C622.533 112.506 620.093 127.456 615.214 141.03C610.334 154.604 603.015 165.783 593.256 174.566C583.496 183.35 571.342 188.762 556.791 190.802C552.355 191.335 547.609 191.689 542.552 191.867C537.495 191.956 534.035 192 532.171 192H474.015ZM494.243 173.236H532.171C535.809 173.236 539.713 173.147 543.883 172.969C548.141 172.703 551.779 172.26 554.795 171.639C565.974 169.687 574.979 165.162 581.811 158.064C588.731 150.967 593.788 142.095 596.982 131.448C600.176 120.713 601.773 108.958 601.773 96.1818C601.773 83.3174 600.176 71.5175 596.982 60.7824C593.788 50.0472 588.731 41.1751 581.811 34.1662C574.89 27.1573 565.885 22.6769 554.795 20.725C551.779 20.104 548.097 19.7048 543.749 19.5273C539.491 19.2612 535.632 19.1281 532.171 19.1281H494.243V173.236ZM644.858 192V0.363691H764.63V19.1281H664.42V85.4023H748.661V104.167H664.42V173.236H764.63V192H644.858ZM788.668 192V0.363691H808.364L913.897 157.399V0.363691H933.593V192H913.897L808.364 34.8316V192H788.668ZM1013.86 192V19.1281H946.92V0.363691H1100.36V19.1281H1033.42V192H1013.86ZM1116.38 192V0.363691H1135.94V192H1116.38ZM1151.88 192L1218.29 94.9841L1153.61 0.363691H1177.3L1229.87 78.6152L1282.44 0.363691H1306.26L1241.58 94.9841L1307.86 192H1284.17L1229.87 111.486L1175.71 192H1151.88Z" fill="url(#paint0_linear_195_2937)"/>
<defs>
<linearGradient id="paint0_linear_195_2937" x1="655" y1="0" x2="655" y2="192" gradientUnits="userSpaceOnUse">
<stop stop-color="white"/>
<stop offset="1" stop-color="white" stop-opacity="0"/>
</linearGradient>
</defs>
</svg>
