<svg width="124" height="27" viewBox="0 0 124 27" fill="none" xmlns="http://www.w3.org/2000/svg">
<path d="M20.9981 4.5V6.5C20.9981 16.127 15.6251 20.5 8.99807 20.5H7.09607C7.30807 17.488 8.24607 15.665 10.6941 13.499C11.8981 12.434 11.7961 11.819 11.2031 12.172C7.11907 14.602 5.09007 17.886 5.00007 23.13L4.99707 23.5H2.99707C2.99707 22.137 3.11307 20.9 3.34307 19.768C3.11374 18.474 2.99874 16.718 2.99807 14.5C2.99807 8.977 7.47507 4.5 12.9981 4.5C14.9981 4.5 16.9981 5.5 20.9981 4.5Z" fill="white"/>
<path d="M38.92 21L34.1 6.6H35.95L40.14 19.11L44.37 6.6H46.22L41.4 21H38.92ZM51.2128 21.3C50.1528 21.3 49.2261 21.0667 48.4328 20.6C47.6461 20.1267 47.0328 19.47 46.5928 18.63C46.1528 17.7833 45.9328 16.7967 45.9328 15.67C45.9328 14.49 46.1495 13.47 46.5828 12.61C47.0161 11.7433 47.6195 11.0767 48.3928 10.61C49.1728 10.1367 50.0861 9.9 51.1328 9.9C52.2195 9.9 53.1428 10.15 53.9028 10.65C54.6695 11.15 55.2428 11.8633 55.6228 12.79C56.0095 13.7167 56.1761 14.82 56.1228 16.1H54.3228V15.46C54.3028 14.1333 54.0328 13.1433 53.5128 12.49C52.9928 11.83 52.2195 11.5 51.1928 11.5C50.0928 11.5 49.2561 11.8533 48.6828 12.56C48.1095 13.2667 47.8228 14.28 47.8228 15.6C47.8228 16.8733 48.1095 17.86 48.6828 18.56C49.2561 19.26 50.0728 19.61 51.1328 19.61C51.8461 19.61 52.4661 19.4467 52.9928 19.12C53.5195 18.7933 53.9328 18.3233 54.2328 17.71L55.9428 18.3C55.5228 19.2533 54.8895 19.9933 54.0428 20.52C53.2028 21.04 52.2595 21.3 51.2128 21.3ZM47.2228 16.1V14.67H55.2028V16.1H47.2228ZM58.3492 21V10.2H59.9392V12.81L59.6792 12.47C59.8059 12.1367 59.9692 11.83 60.1692 11.55C60.3759 11.27 60.6059 11.04 60.8592 10.86C61.1392 10.6333 61.4559 10.46 61.8092 10.34C62.1626 10.22 62.5226 10.15 62.8892 10.13C63.2559 10.1033 63.5992 10.1267 63.9192 10.2V11.87C63.5459 11.77 63.1359 11.7433 62.6892 11.79C62.2426 11.8367 61.8292 12 61.4492 12.28C61.1026 12.5267 60.8326 12.8267 60.6392 13.18C60.4526 13.5333 60.3226 13.9167 60.2492 14.33C60.1759 14.7367 60.1392 15.1533 60.1392 15.58V21H58.3492ZM69.8548 21.3C68.8482 21.3 67.9848 21.05 67.2648 20.55C66.5448 20.0433 65.9882 19.36 65.5948 18.5C65.2082 17.64 65.0148 16.67 65.0148 15.59C65.0148 14.51 65.2082 13.54 65.5948 12.68C65.9882 11.82 66.5448 11.1433 67.2648 10.65C67.9848 10.15 68.8448 9.9 69.8448 9.9C70.8648 9.9 71.7215 10.1467 72.4148 10.64C73.1082 11.1333 73.6315 11.81 73.9848 12.67C74.3448 13.53 74.5248 14.5033 74.5248 15.59C74.5248 16.6633 74.3448 17.6333 73.9848 18.5C73.6315 19.36 73.1082 20.0433 72.4148 20.55C71.7215 21.05 70.8682 21.3 69.8548 21.3ZM70.0748 19.67C70.8015 19.67 71.3982 19.4967 71.8648 19.15C72.3315 18.7967 72.6748 18.3133 72.8948 17.7C73.1215 17.08 73.2348 16.3767 73.2348 15.59C73.2348 14.79 73.1215 14.0867 72.8948 13.48C72.6748 12.8667 72.3348 12.39 71.8748 12.05C71.4148 11.7033 70.8315 11.53 70.1248 11.53C69.3915 11.53 68.7848 11.71 68.3048 12.07C67.8315 12.43 67.4782 12.9167 67.2448 13.53C67.0182 14.1433 66.9048 14.83 66.9048 15.59C66.9048 16.3567 67.0215 17.05 67.2548 17.67C67.4882 18.2833 67.8382 18.77 68.3048 19.13C68.7782 19.49 69.3682 19.67 70.0748 19.67ZM73.2348 21V13.05H73.0348V6.6H74.8248V21H73.2348ZM82.3066 21.3C81.2466 21.3 80.3199 21.0667 79.5266 20.6C78.7399 20.1267 78.1266 19.47 77.6866 18.63C77.2466 17.7833 77.0266 16.7967 77.0266 15.67C77.0266 14.49 77.2432 13.47 77.6766 12.61C78.1099 11.7433 78.7132 11.0767 79.4866 10.61C80.2666 10.1367 81.1799 9.9 82.2266 9.9C83.3132 9.9 84.2366 10.15 84.9966 10.65C85.7632 11.15 86.3366 11.8633 86.7166 12.79C87.1032 13.7167 87.2699 14.82 87.2166 16.1H85.4166V15.46C85.3966 14.1333 85.1266 13.1433 84.6066 12.49C84.0866 11.83 83.3132 11.5 82.2866 11.5C81.1866 11.5 80.3499 11.8533 79.7766 12.56C79.2032 13.2667 78.9166 14.28 78.9166 15.6C78.9166 16.8733 79.2032 17.86 79.7766 18.56C80.3499 19.26 81.1666 19.61 82.2266 19.61C82.9399 19.61 83.5599 19.4467 84.0866 19.12C84.6132 18.7933 85.0266 18.3233 85.3266 17.71L87.0366 18.3C86.6166 19.2533 85.9832 19.9933 85.1366 20.52C84.2966 21.04 83.3532 21.3 82.3066 21.3ZM78.3166 16.1V14.67H86.2966V16.1H78.3166ZM96.84 21V15.59C96.84 15.0767 96.7933 14.5833 96.7 14.11C96.6133 13.6367 96.4567 13.2133 96.23 12.84C96.01 12.46 95.71 12.16 95.33 11.94C94.9567 11.72 94.4833 11.61 93.91 11.61C93.4633 11.61 93.0567 11.6867 92.69 11.84C92.33 11.9867 92.02 12.2133 91.76 12.52C91.5 12.8267 91.2967 13.2133 91.15 13.68C91.01 14.14 90.94 14.6833 90.94 15.31L89.77 14.95C89.77 13.9033 89.9567 13.0067 90.33 12.26C90.71 11.5067 91.24 10.93 91.92 10.53C92.6067 10.1233 93.4133 9.92 94.34 9.92C95.04 9.92 95.6367 10.03 96.13 10.25C96.6233 10.47 97.0333 10.7633 97.36 11.13C97.6867 11.49 97.9433 11.8967 98.13 12.35C98.3167 12.7967 98.4467 13.2533 98.52 13.72C98.6 14.18 98.64 14.6167 98.64 15.03V21H96.84ZM89.14 21V10.2H90.74V13.09H90.94V21H89.14ZM107.27 21C106.63 21.1267 105.997 21.1767 105.37 21.15C104.75 21.13 104.197 21.0067 103.71 20.78C103.223 20.5467 102.853 20.1867 102.6 19.7C102.387 19.2733 102.27 18.8433 102.25 18.41C102.237 17.97 102.23 17.4733 102.23 16.92V7.2H104.01V16.84C104.01 17.28 104.013 17.6567 104.02 17.97C104.033 18.2833 104.103 18.5533 104.23 18.78C104.47 19.2067 104.85 19.4567 105.37 19.53C105.897 19.6033 106.53 19.5833 107.27 19.47V21ZM100.04 11.67V10.2H107.27V11.67H100.04ZM109.663 8.29V6.45H111.443V8.29H109.663ZM109.663 21V10.2H111.443V21H109.663ZM113.243 21L117.373 15.54L113.333 10.2H115.453L118.413 14.16L121.343 10.2H123.463L119.423 15.54L123.563 21H121.433L118.413 16.92L115.373 21H113.243Z" fill="white"/>
</svg>
