<svg width="52" height="52" viewBox="0 0 52 52" fill="none" xmlns="http://www.w3.org/2000/svg">
<path d="M26 51.3C12.1203 51.3 0.8 39.9797 0.8 26.1C0.8 12.2203 12.1203 0.900002 26 0.900002C39.8797 0.900002 51.2 12.2203 51.2 26.1C51.2 39.9797 39.8797 51.3 26 51.3ZM22.85 19.8C22.85 18.0281 21.4719 16.65 19.7 16.65C17.9281 16.65 16.55 18.0281 16.55 19.8V32.4C16.55 34.1719 17.9281 35.55 19.7 35.55C21.4719 35.55 22.85 34.1719 22.85 32.4V19.8ZM35.45 19.8C35.45 18.0281 34.0719 16.65 32.3 16.65C30.5281 16.65 29.15 18.0281 29.15 19.8V32.4C29.15 34.1719 30.5281 35.55 32.3 35.55C34.0719 35.55 35.45 34.1719 35.45 32.4V19.8Z" fill="white"/>
</svg>
