<svg width="22" height="20" viewBox="0 0 22 20" fill="none" xmlns="http://www.w3.org/2000/svg">
<path d="M11 0C4.93 0 0 4.93 0 11C0 17.07 4.93 22 11 22C17.07 22 22 17.07 22 11C22 4.93 17.07 0 11 0ZM9.5 19.9C5.1 19.2 1.5 15.5 1.5 11C1.5 10.2 1.6 9.4 1.8 8.7L7.5 14.5V15.5C7.5 16.6 8.4 17.5 9.5 17.5V19.9ZM17.9 17.4C17.6 16.5 16.8 15.9 15.9 15.9H14.5V12.5C14.5 11.9 14 11.5 13.5 11.5H7V9.5H9C9.6 9.5 10 9.1 10 8.5V6.5H12C13.1 6.5 14 5.6 14 4.5V4.1C17.4 5.5 20 8.9 20 12.5C20 14.4 19.2 16.1 17.9 17.4Z" fill="white"/>
</svg>
