<svg width="22" height="22" viewBox="0 0 22 22" fill="none" xmlns="http://www.w3.org/2000/svg">
<path d="M19.774 0.621827C20.1471 0.663282 20.4788 0.994923 20.5617 1.36802C20.9348 3.2335 21.142 6.0939 19.7326 8.87139C18.862 10.5296 17.4525 12.0634 15.2554 13.3485V16.7064C15.2554 17.4111 14.8823 18.033 14.302 18.4061L10.6539 20.6032C9.74189 21.1421 8.62261 20.4788 8.62261 19.4839V15.1726C8.62261 13.7216 7.42041 12.5194 5.96948 12.5194H1.69961C0.663233 12.5194 -4.8399e-05 11.4001 0.538868 10.5296L2.73599 6.84009C3.10908 6.25972 3.73091 5.88662 4.43564 5.88662H7.79351C9.07861 3.6895 10.6125 2.28003 12.2707 1.40947C15.0481 1.2815e-06 17.9085 0.248732 19.774 0.621827ZM10.6125 15.214V18.2817L13.2656 16.7064V14.302C12.4779 14.6336 11.5659 14.9238 10.6125 15.214ZM17.95 7.95938C18.9449 6.05244 18.9449 4.02114 18.6962 2.44585C17.1209 2.19712 15.0896 2.19712 13.1827 3.19204C11.1928 4.22842 9.16152 6.38408 7.87642 10.9441C8.91279 11.4001 9.74189 12.2292 10.1979 13.2656C14.758 11.9805 16.9551 9.94922 17.95 7.95938ZM6.84004 7.87647H4.43564L2.86035 10.5296H5.92803C6.21821 9.57612 6.5084 8.66411 6.84004 7.87647ZM14.5921 4.8917C15.5041 4.8917 16.2503 5.63789 16.2503 6.5499C16.2503 7.46191 15.5041 8.20811 14.5921 8.20811C13.6801 8.20811 12.9339 7.46191 12.9339 6.5499C12.9339 5.63789 13.6801 4.8917 14.5921 4.8917Z" fill="#5AC451"/>
</svg>
