<svg width="21" height="22" viewBox="0 0 21 22" fill="none" xmlns="http://www.w3.org/2000/svg">
<path d="M7.95937 -9.63211e-05C8.87139 -9.63211e-05 9.70049 0.372999 10.2809 0.95337C10.8612 0.372999 11.6903 -9.63211e-05 12.6023 -9.63211e-05C14.1362 -9.63211e-05 15.4213 1.03628 15.7944 2.4043C17.7428 2.81885 19.2352 4.55996 19.2352 6.63272C19.2352 7.08872 19.1522 7.54473 19.0279 7.95928C19.9813 8.74692 20.5617 9.94912 20.5617 11.2757C20.5617 12.2706 20.2301 13.1826 19.6912 13.8874C19.8155 14.3434 19.8984 14.7994 19.8984 15.2554C19.8984 17.4939 18.1988 19.318 16.0017 19.5667C15.3384 20.5616 14.2191 21.2249 12.934 21.2249C11.8976 21.2249 10.9441 20.7689 10.2809 20.0642C9.61758 20.7689 8.66411 21.2249 7.62773 21.2249C6.34263 21.2249 5.22334 20.5616 4.56006 19.5667C2.36294 19.3594 0.663282 17.4939 0.663282 15.2554C0.663282 14.7994 0.746192 14.3434 0.870557 13.8874C0.331641 13.1826 3.57628e-07 12.2706 3.57628e-07 11.2757C3.57628e-07 9.94912 0.580371 8.74692 1.53384 7.95928C1.40947 7.54473 1.32656 7.08872 1.32656 6.63272C1.32656 4.55996 2.81895 2.81885 4.76733 2.4043C5.18188 1.03628 6.42554 -9.63211e-05 7.95937 -9.63211e-05ZM9.28594 3.31631C9.28594 2.57012 8.70557 1.98975 7.95937 1.98975C7.21318 1.98975 6.63281 2.57012 6.63281 3.31631C6.63281 3.85523 6.17681 4.31123 5.63789 4.31123C4.35278 4.31123 3.31641 5.34761 3.31641 6.63272C3.31641 7.08872 3.44077 7.46182 3.64805 7.83491C3.77241 8.04219 3.81387 8.33237 3.73096 8.62256C3.6895 8.87129 3.48223 9.07857 3.2335 9.20293C2.4873 9.61748 1.98984 10.3637 1.98984 11.2757C1.98984 11.939 2.28003 12.5608 2.73604 12.9753C3.06768 13.2655 3.15059 13.763 2.94331 14.1775C2.77749 14.5092 2.65313 14.8823 2.65313 15.2554C2.65313 16.5405 3.6895 17.5769 4.97461 17.5769C5.01606 17.5769 5.05752 17.5769 5.09897 17.5769C5.55498 17.5354 5.92808 17.7841 6.0939 18.1987C6.34263 18.8205 6.923 19.2351 7.62773 19.2351C8.45684 19.2351 9.16157 18.6132 9.28594 17.7841C9.28594 17.7427 9.28594 17.7427 9.28594 17.7012V3.31631ZM11.2758 17.7012C11.2758 17.7427 11.2758 17.7427 11.2758 17.7841C11.4001 18.6132 12.1049 19.2351 12.934 19.2351C13.6387 19.2351 14.2191 18.8205 14.4678 18.1987C14.6336 17.7841 15.0067 17.5354 15.4627 17.5769C15.5042 17.5769 15.5457 17.5769 15.5871 17.5769C16.8722 17.5769 17.9086 16.5405 17.9086 15.2554C17.9086 14.8408 17.8257 14.5092 17.6184 14.1775C17.4111 13.763 17.494 13.2655 17.8257 12.9753C18.2817 12.5608 18.5719 11.939 18.5719 11.2757C18.5719 10.3637 18.0744 9.61748 17.3282 9.20293C17.0795 9.07857 16.8722 8.87129 16.8308 8.62256C16.7479 8.33237 16.7893 8.04219 16.9137 7.83491C17.1209 7.46182 17.2453 7.08872 17.2453 6.63272C17.2453 5.34761 16.2089 4.31123 14.9238 4.31123C14.3849 4.31123 13.9289 3.85523 13.9289 3.31631C13.9289 2.57012 13.3485 1.98975 12.6023 1.98975C11.8562 1.98975 11.2758 2.57012 11.2758 3.31631V17.7012Z" fill="#5AC451"/>
</svg>
