<svg width="20" height="16" viewBox="0 0 20 16" fill="none" xmlns="http://www.w3.org/2000/svg">
<path d="M4 1.5V5C4.1875 4.40625 4.75 4 5.40625 4H6.59375C7.25 4 7.84375 4.46875 8.03125 5.09375C8.40625 4.875 8.875 4.84375 9.28125 5H9.3125H9.34375H9.375H9.40625H9.4375H9.46875H9.5H9.53125H9.5625H9.59375H9.625H9.65625H9.6875H9.71875H9.75H9.78125H9.8125H9.84375H9.875H9.90625H9.9375H9.96875H10H10.0312H10.0625H10.0938H10.125H10.1562H10.1875H10.2188H10.25H10.2812H10.3125H10.3438H10.375H10.4062H10.4375H10.4688H10.5H10.5312H10.5625H10.5938H10.625L9.03125 1.3125C8.96875 1.125 8.78125 1 8.59375 1H4.5C4.21875 1 4 1.25 4 1.5ZM3 4.9375V1.5C3 0.6875 3.65625 0 4.5 0H8.59375C9.1875 0 9.71875 0.375 9.96875 0.90625L11.8125 5H11.8438H11.875H11.9062H11.9375H11.9688H12H12.0312H12.0625H12.0938H12.125H12.1562H12.1875H12.2188H12.25H12.2812H12.3125H12.3438H12.375H12.4062H12.4375H12.4688H12.5H12.5312H12.5625H12.5938H12.625H12.6562H12.6875H12.7188H12.75H12.7812H12.8125H12.8438H12.875H12.9062H12.9375H12.9688H13H13.0312H13.0625H13.0938H13.125H13.1562H13.1875H13.2188H13.25H13.2812H13.3125H13.3438H13.375H13.4062H13.4375H13.4688H13.5H13.5312H13.5625H13.5938H13.625H13.6562H13.6875H13.7188H13.75H13.7812H13.8125H13.8438H13.875H13.9062H13.9375H13.9688H14H14.0312H14.0625H14.0938H14.125H14.1562H14.1875H14.2188H14.25H14.2812H14.3125H14.3438H14.375H14.4062H14.4375H14.4688H14.5H14.5312H14.5625H14.5938H14.625H14.6562H14.6875H14.7188H14.75H14.7812H14.8125H14.8438H14.875H14.9062H14.9375H14.9688H15V3.75C15 2.84375 15.3438 1.9375 16 1.28125L16.125 1.15625C16.3125 0.96875 16.6562 0.96875 16.8438 1.15625C17.0312 1.34375 17.0312 1.6875 16.8438 1.875L16.7188 2C16.25 2.46875 16 3.09375 16 3.75V5H16.0312H16.0625H16.0938H16.125H16.1562H16.1875H16.2188H16.25H16.2812H16.3125H16.3438H16.375H16.4062H16.4375H16.4688H16.5H16.5312H16.5625H16.5938H16.625H16.6562H16.6875H16.7188H16.75H16.7812H16.8125H16.8438H16.875H16.9062H16.9375H16.9688H17H17.0312H17.0625H17.0938H17.125H17.1562H17.1875H17.2188H17.25H17.2812H17.3125H17.3438H17.375H17.4062H17.4375H17.4688H17.5H17.5312H17.5625H17.5938H17.625H17.6562H17.6875H17.7188H17.75H17.7812H17.8125H17.8438H17.875H17.9062H17.9375H17.9688H18H18.0312H18.0625H18.0938H18.125H18.1562H18.1875H18.2188H18.25H18.2812H18.3125H18.3438H18.375H18.4062H18.4375H18.4688H18.5H18.5312H18.5625H18.5938H18.625H18.6562H18.6875H18.7188H18.75C19.4375 5 19.9688 5.5625 19.9688 6.25V8.15625C19.9688 8.53125 19.8125 8.90625 19.5 9.125L17.7188 10.5625C17.3438 10.875 16.9062 11 16.4688 11H11.9375C11.7812 11.5 11.4062 11.9062 10.9062 12.0625C11.2188 12.625 11.125 13.3438 10.6562 13.8438L9.8125 14.6875C9.34375 15.1562 8.59375 15.25 8.03125 14.9375C7.84375 15.5625 7.25 16 6.59375 16H5.40625C4.71875 16 4.125 15.5625 3.9375 14.9375C3.375 15.25 2.65625 15.1562 2.15625 14.6875L1.3125 13.8438L1.65625 13.5L1.3125 13.8438C0.84375 13.3438 0.75 12.625 1.0625 12.0625C0.4375 11.875 0 11.2812 0 10.5938V9.40625C0 8.75 0.4375 8.15625 1.0625 7.96875C0.75 7.40625 0.84375 6.6875 1.3125 6.1875L2.15625 5.34375C2.40625 5.125 2.6875 4.96875 3 4.9375ZM12 10H16.4688C16.6875 10 16.9062 9.9375 17.0938 9.78125L18.9062 8.34375C18.9375 8.3125 19 8.21875 19 8.15625V6.25C19 6.125 18.875 6 18.75 6H18.7188H18.6875H18.6562H18.625H18.5938H18.5625H18.5312H18.5H18.4688H18.4375H18.4062H18.375H18.3438H18.3125H18.2812H18.25H18.2188H18.1875H18.1562H18.125H18.0938H18.0625H18.0312H18H17.9688H17.9375H17.9062H17.875H17.8438H17.8125H17.7812H17.75H17.7188H17.6875H17.6562H17.625H17.5938H17.5625H17.5312H17.5H17.4688H17.4375H17.4062H17.375H17.3438H17.3125H17.2812H17.25H17.2188H17.1875H17.1562H17.125H17.0938H17.0625H17.0312H17H16.9688H16.9375H16.9062H16.875H16.8438H16.8125H16.7812H16.75H16.7188H16.6875H16.6562H16.625H16.5938H16.5625H16.5312H16.5H16.4688H16.4375H16.4062H16.375H16.3438H16.3125H16.2812H16.25H16.2188H16.1875H16.1562H16.125H16.0938H16.0625H16.0312H16H15.9688H15.9375H15.9062H15.875H15.8438H15.8125H15.7812H15.75H15.7188H15.6875H15.6562H15.625H15.5938H15.5625H15.5312H15.5H15.4688H15.4375H15.4062H15.375H15.3438H15.3125H15.2812H15.25H15.2188H15.1875H15.1562H15.125H15.0938H15.0625H15.0312H15H14.9688H14.9375H14.9062H14.875H14.8438H14.8125H14.7812H14.75H14.7188H14.6875H14.6562H14.625H14.5938H14.5625H14.5312H14.5H14.4688H14.4375H14.4062H14.375H14.3438H14.3125H14.2812H14.25H14.2188H14.1875H14.1562H14.125H14.0938H14.0625H14.0312H14H13.9688H13.9375H13.9062H13.875H13.8438H13.8125H13.7812H13.75H13.7188H13.6875H13.6562H13.625H13.5938H13.5625H13.5312H13.5H13.4688H13.4375H13.4062H13.375H13.3438H13.3125H13.2812H13.25H13.2188H13.1875H13.1562H13.125H13.0938H13.0625H13.0312H13H12.9688H12.9375H12.9062H12.875H12.8438H12.8125H12.7812H12.75H12.7188H12.6875H12.6562H12.625H12.5938H12.5625H12.5312H12.5H12.4688H12.4375H12.4062H12.375H12.3438H12.3125H12.2812H12.25H12.2188H12.1875H12.1562H12.125H12.0938H12.0625H12.0312H12H11.9688H11.9375H11.9062H11.875H11.8438H11.8125H11.7812H11.75H11.7188H11.6875H11.6562H11.625H11.5938H11.5625H11.5312H11.5H11.4688H11.4375H11.4062H11.375H11.3438H11.3125H11.2812H11.25H11.2188H11.1875H11.1562H11.125H11.0938H11.0625H11.0312H11H10.9688H10.9375H10.9062H10.875H10.8438H10.8125H10.7812H10.75H10.7188H10.6875H10.6562H10.625H10.5938H10.5625H10.5312L10.7188 6.1875C11.1875 6.6875 11.2812 7.40625 10.9688 7.96875C11.5938 8.15625 12.0312 8.75 12.0312 9.40625V10H12ZM16 15C16.5312 15 17 14.5625 17 14C17 13.4688 16.5312 13 16 13C15.4375 13 15 13.4688 15 14C15 14.5625 15.4375 15 16 15ZM16 12C16.6875 12 17.3438 12.4062 17.7188 13C18.0625 13.625 18.0625 14.4062 17.7188 15C17.3438 15.625 16.6875 16 16 16C15.2812 16 14.625 15.625 14.25 15C13.9062 14.4062 13.9062 13.625 14.25 13C14.625 12.4062 15.2812 12 16 12ZM4.90625 5.46875L4.84375 5.875C4.84375 6.0625 4.71875 6.21875 4.53125 6.28125C4.46875 6.3125 4.4375 6.3125 4.375 6.34375C4.1875 6.4375 4 6.40625 3.84375 6.28125L3.53125 6.03125C3.34375 5.875 3.0625 5.875 2.875 6.0625L2.03125 6.90625C1.84375 7.09375 1.84375 7.375 2 7.5625L2.25 7.875C2.375 8.03125 2.40625 8.21875 2.3125 8.40625C2.3125 8.46875 2.28125 8.5 2.25 8.5625C2.1875 8.75 2.03125 8.875 1.84375 8.875L1.4375 8.90625C1.1875 8.9375 1 9.15625 1 9.40625V10.5938C1 10.875 1.1875 11.0938 1.4375 11.0938L1.84375 11.1562C2.03125 11.1562 2.1875 11.2812 2.25 11.4688C2.28125 11.5312 2.3125 11.5625 2.3125 11.625C2.40625 11.7812 2.375 12 2.25 12.1562L2 12.4688C1.84375 12.6562 1.84375 12.9375 2.03125 13.125L2.875 13.9688C3.0625 14.1562 3.34375 14.1562 3.53125 14L3.84375 13.75C4 13.625 4.1875 13.5938 4.375 13.6875C4.4375 13.6875 4.46875 13.7188 4.53125 13.75C4.71875 13.8125 4.84375 13.9688 4.84375 14.1562L4.90625 14.5625C4.90625 14.8125 5.125 15 5.375 15H6.59375C6.84375 15 7.0625 14.8125 7.0625 14.5625L7.125 14.1562C7.125 13.9688 7.25 13.8125 7.4375 13.75C7.5 13.7188 7.53125 13.6875 7.59375 13.6875C7.78125 13.5938 7.96875 13.625 8.125 13.75L8.4375 14C8.625 14.1562 8.90625 14.1562 9.09375 13.9688L9.9375 13.125C10.125 12.9375 10.125 12.6562 9.96875 12.4688L9.71875 12.1562C9.59375 12 9.5625 11.7812 9.65625 11.625C9.65625 11.5625 9.6875 11.5312 9.71875 11.4688C9.78125 11.2812 9.9375 11.1562 10.125 11.1562L10.5312 11.0938C10.7812 11.0938 10.9688 10.875 10.9688 10.5938V9.40625C10.9688 9.15625 10.7812 8.9375 10.5312 8.90625L10.125 8.875C9.9375 8.875 9.78125 8.75 9.71875 8.5625C9.6875 8.5 9.65625 8.46875 9.65625 8.40625C9.5625 8.21875 9.59375 8.03125 9.71875 7.875L9.96875 7.5625C10.125 7.375 10.125 7.09375 9.9375 6.90625L9.09375 6.0625C8.90625 5.875 8.625 5.875 8.4375 6.03125L8.125 6.28125C7.96875 6.40625 7.78125 6.4375 7.59375 6.34375C7.53125 6.3125 7.5 6.3125 7.4375 6.28125C7.25 6.21875 7.125 6.0625 7.125 5.875L7.09375 5.46875C7.0625 5.21875 6.84375 5 6.59375 5H5.40625C5.125 5 4.90625 5.21875 4.90625 5.46875ZM4.28125 10C4.28125 10.625 4.59375 11.1875 5.125 11.5C5.65625 11.7812 6.3125 11.7812 6.84375 11.5C7.375 11.1875 7.6875 10.625 7.6875 10C7.6875 9.40625 7.375 8.84375 6.84375 8.53125C6.3125 8.25 5.65625 8.25 5.125 8.53125C4.59375 8.84375 4.28125 9.40625 4.28125 10ZM6 12.7188C5.03125 12.7188 4.125 12.1875 3.65625 11.375C3.15625 10.5312 3.15625 9.5 3.65625 8.65625C4.125 7.84375 5.03125 7.3125 6 7.3125C6.9375 7.3125 7.84375 7.84375 8.3125 8.65625C8.8125 9.5 8.8125 10.5312 8.3125 11.375C7.84375 12.1875 6.9375 12.7188 6 12.7188Z" fill="white"/>
</svg>
