<svg width="21" height="18" viewBox="0 0 21 18" fill="none" xmlns="http://www.w3.org/2000/svg">
<path d="M1.6875 16.875H4.53516C4.64062 17.2969 4.81641 17.6836 5.0625 18H1.6875C0.738281 18 0 17.2617 0 16.3125V3.9375C0 1.79297 1.75781 0 3.9375 0C5.83594 0 7.45312 1.40625 7.80469 3.23438C7.38281 3.44531 7.06641 3.76172 6.85547 4.18359L6.75 4.35938V3.9375C6.75 2.39062 5.48438 1.125 3.9375 1.125C2.35547 1.125 1.125 2.39062 1.125 3.9375V5.625H6.04688L5.44922 6.75H1.125V16.3125C1.125 16.6289 1.37109 16.875 1.6875 16.875ZM13.3594 2.42578L17.4727 4.21875C17.6836 4.28906 17.8945 4.46484 18 4.71094L20.1094 8.61328C20.1797 8.78906 20.25 8.96484 20.25 9.14062V16.3125C20.25 17.2617 19.4766 18 18.5625 18H7.3125C6.36328 18 5.625 17.2617 5.625 16.3125V9.14062C5.625 8.96484 5.66016 8.78906 5.73047 8.61328L7.83984 4.71094C7.94531 4.46484 8.15625 4.28906 8.36719 4.21875L12.4805 2.42578C12.7617 2.28516 13.0781 2.28516 13.3594 2.42578ZM12.9375 3.44531L8.82422 5.23828L6.75 9.14062V16.3125C6.75 16.6289 6.99609 16.875 7.3125 16.875H10.125V14.625C10.125 13.7109 10.8633 12.9375 11.8125 12.9375H14.0625C14.9766 12.9375 15.75 13.7109 15.75 14.625V16.875H18.5625C18.8438 16.875 19.125 16.6289 19.125 16.3125V9.14062L17.0156 5.23828L12.9375 3.44531ZM14.625 16.875V14.625C14.625 14.3438 14.3438 14.0625 14.0625 14.0625H11.8125C11.4961 14.0625 11.25 14.3438 11.25 14.625V16.875H14.625ZM11.8125 7.875V10.125H14.0625V7.875H11.8125ZM11.8125 6.75H14.0625C14.6602 6.75 15.1875 7.27734 15.1875 7.875V10.125C15.1875 10.7578 14.6602 11.25 14.0625 11.25H11.8125C11.1797 11.25 10.6875 10.7578 10.6875 10.125V7.875C10.6875 7.27734 11.1797 6.75 11.8125 6.75Z" fill="white"/>
</svg>
