<svg width="22" height="20" viewBox="0 0 22 20" fill="none" xmlns="http://www.w3.org/2000/svg">
<path d="M19.5252 0.373097C19.8154 0.124367 20.1885 1.3411e-06 20.5616 0.124367C20.9347 0.290187 21.2249 0.663283 21.2249 1.07783V8.82993C21.2249 14.2605 16.7478 18.6548 11.3171 18.6548C7.95928 18.6548 5.05742 16.3333 4.22832 13.2242C2.8603 14.4678 1.98975 16.2918 1.98975 18.3231V18.9864C1.98975 19.5253 1.53374 19.9813 0.994825 19.9813C0.455909 19.9813 -9.72748e-05 19.5253 -9.72748e-05 18.9864V18.3231C-9.72748e-05 15.214 1.5752 12.478 3.97959 10.8612C4.26978 7.04736 7.42036 4.0626 11.2757 4.0626C14.0117 4.0626 16.0845 3.15059 17.4525 2.23858C18.2401 1.69966 18.9034 1.07783 19.5252 0.373097ZM19.2351 3.39932C17.6598 4.60151 15.0066 6.05244 11.2757 6.05244C8.87129 6.05244 6.88145 7.62774 6.21816 9.7834C7.08872 9.53467 8.00073 9.36885 8.9542 9.36885H12.2706C12.8095 9.36885 13.2655 9.82485 13.2655 10.3638C13.2655 10.9027 12.8095 11.3587 12.2706 11.3587H8.9542C7.91782 11.3587 6.9229 11.6074 6.01089 12.022C6.34253 14.6336 8.62256 16.6649 11.3171 16.6649C15.6699 16.6649 19.2351 13.1413 19.2351 8.82993V3.39932Z" fill="#5AC451"/>
</svg>
