<svg width="21" height="16" viewBox="0 0 21 16" fill="none" xmlns="http://www.w3.org/2000/svg">
<path d="M5.97656 0.0703125C6.08203 0 6.22266 0 6.32812 0.0351562L14.0273 2.25L19.0898 0.210938C19.6172 0 20.25 0.386719 20.25 0.984375V12.7617C20.25 13.1133 20.0391 13.4297 19.6875 13.5352L14.2383 15.7148C14.1328 15.7852 14.0273 15.7852 13.8867 15.75L6.1875 13.5352L1.125 15.5742C0.597656 15.7852 0 15.3984 0 14.8008V3.02344C0 2.67188 0.210938 2.35547 0.527344 2.25L5.97656 0.0703125ZM1.125 3.19922V14.3789L5.625 12.5859V1.40625L1.125 3.19922ZM13.5 14.4492V3.26953L6.75 1.33594V12.5156L13.5 14.4492ZM14.625 14.3789L19.125 12.5859V1.40625L14.625 3.19922V14.3789Z" fill="white"/>
</svg>
