<svg width="56" height="56" viewBox="0 0 56 56" fill="none" xmlns="http://www.w3.org/2000/svg">
<path d="M28 3C23.0555 3 18.222 4.46622 14.1108 7.21326C9.99952 9.96029 6.79521 13.8648 4.90302 18.4329C3.01083 23.0011 2.51575 28.0277 3.48038 32.8773C4.44501 37.7268 6.82603 42.1813 10.3223 45.6777C13.8187 49.174 18.2732 51.555 23.1227 52.5196C27.9723 53.4843 32.9989 52.9892 37.5671 51.097C42.1352 49.2048 46.0397 46.0005 48.7867 41.8892C51.5338 37.778 53 32.9445 53 28C52.993 21.3717 50.3568 15.017 45.6699 10.3301C40.983 5.64317 34.6283 3.007 28 3ZM37.7476 29.5817L25.2476 38.2356C24.959 38.4351 24.6214 38.5519 24.2712 38.5733C23.921 38.5947 23.5716 38.5199 23.2609 38.357C22.9501 38.1941 22.6899 37.9493 22.5083 37.6491C22.3268 37.3488 22.2308 37.0047 22.2308 36.6538V19.3462C22.2308 18.9953 22.3268 18.6511 22.5083 18.3509C22.6899 18.0507 22.9501 17.8059 23.2609 17.643C23.5716 17.4801 23.921 17.4053 24.2712 17.4267C24.6214 17.4481 24.959 17.5649 25.2476 17.7644L37.7476 26.4183C38.0034 26.5952 38.2126 26.8315 38.357 27.107C38.5014 27.3825 38.5769 27.6889 38.5769 28C38.5769 28.3111 38.5014 28.6175 38.357 28.893C38.2126 29.1685 38.0034 29.4048 37.7476 29.5817Z" fill="white"/>
</svg>
