<svg width="19" height="19" viewBox="0 0 19 19" fill="none" xmlns="http://www.w3.org/2000/svg">
<path d="M6.64453 13.3594C8.15625 12.7266 11.5312 11.25 13.2891 10.0898C16.9453 7.59375 17.1562 3.90234 16.7344 1.58203C14.4141 1.16016 10.7227 1.37109 8.22656 5.02734C7.06641 6.75 5.55469 10.0898 4.88672 11.6016L6.64453 13.3594ZM3.86719 11.1797C3.9375 10.9688 4.04297 10.6875 4.18359 10.4062H0.597656C0.386719 10.4062 0.210938 10.3359 0.105469 10.1602C0 9.98438 0 9.77344 0.0703125 9.59766L1.86328 6.04688C2.25 5.27344 3.02344 4.78125 3.86719 4.78125H7.03125C7.13672 4.64062 7.20703 4.53516 7.3125 4.39453C10.1953 0.140625 14.4844 0 17.0156 0.492188C17.4375 0.5625 17.7539 0.878906 17.8242 1.30078C18.3164 3.83203 18.1758 8.12109 13.9219 11.0039C13.7812 11.1094 13.6758 11.1797 13.5352 11.2852V14.4492C13.5352 15.293 13.043 16.0664 12.2695 16.4531L8.71875 18.2461C8.54297 18.3164 8.33203 18.3164 8.15625 18.2109C7.98047 18.1055 7.91016 17.9297 7.91016 17.7188L7.875 14.0625C7.59375 14.2031 7.3125 14.3086 7.06641 14.4141C6.67969 14.5898 6.1875 14.4844 5.87109 14.168L4.07812 12.4102C3.76172 12.0586 3.65625 11.6016 3.86719 11.1797ZM9.03516 16.8398L11.7773 15.4336C12.1641 15.2578 12.4102 14.8711 12.4102 14.4492V11.918C11.3203 12.5156 10.0898 13.0781 9.03516 13.5703V16.8398ZM3.86719 5.90625C3.44531 5.90625 3.05859 6.15234 2.88281 6.53906L1.47656 9.28125H4.71094C5.20312 8.22656 5.80078 6.99609 6.39844 5.90625H3.86719ZM13.8164 5.34375C13.8164 4.88672 13.4297 4.5 12.9727 4.5C12.4805 4.5 12.1289 4.88672 12.1289 5.34375C12.1289 5.83594 12.4805 6.1875 12.9727 6.1875C13.4297 6.1875 13.8164 5.83594 13.8164 5.34375ZM12.9727 3.375C13.6758 3.375 14.3086 3.76172 14.6602 4.35938C15.0117 4.99219 15.0117 5.73047 14.6602 6.32812C14.3086 6.96094 13.6758 7.3125 12.9727 7.3125C12.2344 7.3125 11.6016 6.96094 11.25 6.32812C10.8984 5.73047 10.8984 4.99219 11.25 4.35938C11.6016 3.76172 12.2344 3.375 12.9727 3.375Z" fill="white"/>
</svg>
