<svg width="84" height="20" viewBox="0 0 84 20" fill="none" xmlns="http://www.w3.org/2000/svg">
<g clip-path="url(#clip0_198_61)">
<path fill-rule="evenodd" clip-rule="evenodd" d="M4.97783 1.25V20H6.10352e-05V1.25H4.97783Z" fill="white" fill-opacity="0.6"/>
<path fill-rule="evenodd" clip-rule="evenodd" d="M7.46674 1.25H18.0445C21.481 1.25 24.2667 4.04822 24.2667 7.5C24.2667 10.9518 21.481 13.75 18.0445 13.75H12.4445V20H7.46674V1.25ZM12.4445 8.75H18.0445C18.7318 8.75 19.289 8.19035 19.289 7.5C19.289 6.80965 18.7318 6.25 18.0445 6.25H12.4445V8.75Z" fill="white" fill-opacity="0.6"/>
<path fill-rule="evenodd" clip-rule="evenodd" d="M42.9334 1.25V10.9375C42.9334 13.1812 44.7441 15 46.9778 15C49.2115 15 51.0223 13.1812 51.0223 10.9375V1.25H56.0002V10.9375C56.0002 15.9426 51.9608 20 46.9778 20C41.995 20 37.9556 15.9426 37.9556 10.9375V1.25H42.9334Z" fill="white" fill-opacity="0.6"/>
<path fill-rule="evenodd" clip-rule="evenodd" d="M26.1334 10C26.1334 5.1675 30.0335 1.25 34.8445 1.25H36.0889V6.25H34.8445C32.7826 6.25 31.1112 7.92895 31.1112 10V10.625C31.1112 15.8027 26.9325 20 21.7778 20H21.1556V15H21.7778C24.1833 15 26.1334 13.0413 26.1334 10.625V10Z" fill="white" fill-opacity="0.6"/>
<path d="M84 1.875C84 2.91053 83.1645 3.75 82.1331 3.75C81.1023 3.75 80.2667 2.91053 80.2667 1.875C80.2667 0.839465 81.1023 0 82.1331 0C83.1645 0 84 0.839465 84 1.875Z" fill="white" fill-opacity="0.6"/>
<path d="M61.3449 20L63.7202 10.0091L65.4862 16.0197C66.5389 19.6046 71.5944 19.6046 72.6476 16.0197L74.4131 10.0091L76.7884 20H81.906L78.1712 4.28975C77.283 0.553723 72.0417 0.415394 70.9591 4.09946L69.0669 10.5417L67.1742 4.09946C66.0921 0.415415 60.8503 0.553703 59.9621 4.28974L56.2273 20H61.3449Z" fill="white" fill-opacity="0.6"/>
</g>
<defs>
<clipPath id="clip0_198_61">
<rect width="84" height="20" fill="white"/>
</clipPath>
</defs>
</svg>
