<svg width="101" height="20" viewBox="0 0 101 20" fill="none" xmlns="http://www.w3.org/2000/svg">
<g clip-path="url(#clip0_198_48)">
<path fill-rule="evenodd" clip-rule="evenodd" d="M12.7779 5.84265C11.9556 5.29325 10.9889 5 10 5V0C11.9778 0 13.9112 0.58649 15.5557 1.6853C17.2002 2.78411 18.4819 4.34591 19.2388 6.17315C19.9957 8.0004 20.1937 10.0111 19.8078 11.9509C19.422 13.8907 18.4696 15.6726 17.0711 17.0711C15.6726 18.4696 13.8907 19.422 11.9509 19.8078C10.0111 20.1937 8.0004 19.9957 6.17315 19.2388C4.3459 18.4819 2.78411 17.2002 1.6853 15.5557C0.58649 13.9112 0 11.9778 0 10H5C5 10.9889 5.29325 11.9556 5.84265 12.7779C6.39205 13.6001 7.17295 14.241 8.0866 14.6194C9.0002 14.9979 10.0055 15.0969 10.9754 14.9039C11.9453 14.711 12.8363 14.2348 13.5356 13.5356C14.2348 12.8363 14.711 11.9453 14.9039 10.9754C15.0969 10.0055 14.9979 9.0002 14.6194 8.0866C14.241 7.17295 13.6001 6.39205 12.7779 5.84265Z" fill="white" fill-opacity="0.6"/>
<path fill-rule="evenodd" clip-rule="evenodd" d="M5 2.64247e-06C5 0.656612 4.87067 1.30679 4.6194 1.91342C4.36812 2.52005 3.99983 3.07124 3.53553 3.53554C3.07124 3.99983 2.52005 4.36813 1.91342 4.6194C1.30679 4.87067 0.656607 5 2.18555e-07 5L0 10C1.31322 10 2.61358 9.74135 3.82684 9.2388C5.0401 8.73625 6.1425 7.99965 7.07105 7.07105C7.99965 6.1425 8.73625 5.0401 9.2388 3.82684C9.74135 2.61358 10 1.31322 10 0L5 2.64247e-06Z" fill="white" fill-opacity="0.6"/>
<path d="M62.8096 7.22626H60.3836V14.9324H62.8096V7.22626Z" fill="white" fill-opacity="0.6"/>
<path d="M60.6536 5.7833C60.9071 6.037 61.2241 6.16385 61.6046 6.16385C61.9851 6.16385 62.2971 6.037 62.5401 5.7833C62.7836 5.51905 62.9051 5.2019 62.9051 4.83192C62.9051 4.45138 62.7836 4.13424 62.5401 3.88055C62.2971 3.62684 61.9851 3.5 61.6046 3.5C61.2241 3.5 60.9071 3.62684 60.6536 3.88055C60.4101 4.13424 60.2886 4.45138 60.2886 4.83192C60.2886 5.2019 60.4101 5.51905 60.6536 5.7833Z" fill="white" fill-opacity="0.6"/>
<path d="M25.5782 14.9324V3.73779H28.0677V12.7442H33.0307V14.9324H25.5782Z" fill="white" fill-opacity="0.6"/>
<path fill-rule="evenodd" clip-rule="evenodd" d="M37.5137 15.1068C36.7209 15.1068 36.0021 14.9324 35.3572 14.5835C34.723 14.2241 34.2209 13.7379 33.8509 13.1247C33.4809 12.5116 33.2959 11.8245 33.2959 11.0634C33.2959 10.3023 33.4809 9.62051 33.8509 9.01796C34.2209 8.41541 34.723 7.93971 35.3572 7.59091C35.9915 7.23146 36.7103 7.05176 37.5137 7.05176C38.3171 7.05176 39.0359 7.22621 39.6701 7.57501C40.3044 7.92386 40.8065 8.40486 41.1765 9.01796C41.5465 9.62051 41.7315 10.3023 41.7315 11.0634C41.7315 11.8245 41.5465 12.5116 41.1765 13.1247C40.8065 13.7379 40.3044 14.2241 39.6701 14.5835C39.0359 14.9324 38.3171 15.1068 37.5137 15.1068ZM37.5137 12.9028C37.8625 12.9028 38.1691 12.8288 38.4334 12.6808C38.6976 12.5222 38.8985 12.3055 39.0359 12.0307C39.1839 11.7453 39.2579 11.4228 39.2579 11.0634C39.2579 10.704 39.1839 10.3922 39.0359 10.1279C38.8879 9.85306 38.6818 9.64166 38.4175 9.49366C38.1638 9.33506 37.8625 9.25581 37.5137 9.25581C37.1754 9.25581 36.8742 9.33506 36.6099 9.49366C36.3456 9.64166 36.1395 9.85306 35.9915 10.1279C35.8435 10.4028 35.7695 10.7199 35.7695 11.0793C35.7695 11.4281 35.8435 11.7453 35.9915 12.0307C36.1395 12.3055 36.3456 12.5222 36.6099 12.6808C36.8742 12.8288 37.1754 12.9028 37.5137 12.9028Z" fill="white" fill-opacity="0.6"/>
<path fill-rule="evenodd" clip-rule="evenodd" d="M43.653 17.9451C44.2978 18.241 45.043 18.389 45.8887 18.389C46.7132 18.389 47.4479 18.2252 48.0927 17.8975C48.7376 17.5698 49.2449 17.1153 49.6149 16.5339C49.9848 15.9525 50.1701 15.2654 50.1701 14.4725V7.22623H47.7914V7.74398C47.6145 7.59508 47.4136 7.47008 47.1889 7.36893C46.7766 7.16808 46.3062 7.06763 45.7777 7.06763C45.0694 7.06763 44.4405 7.23678 43.8908 7.57503C43.3411 7.90273 42.9077 8.35728 42.5905 8.93868C42.2734 9.50953 42.1149 10.1543 42.1149 10.8732C42.1149 11.5814 42.2734 12.2262 42.5905 12.8076C42.9077 13.389 43.3411 13.8489 43.8908 14.1871C44.4405 14.5254 45.0694 14.6945 45.7777 14.6945C46.2956 14.6945 46.766 14.5941 47.1889 14.3933C47.3937 14.296 47.5787 14.1813 47.7439 14.0493V14.536C47.7439 15.0751 47.5695 15.4926 47.2206 15.7886C46.8824 16.0846 46.4119 16.2326 45.8094 16.2326C45.3231 16.2326 44.9056 16.148 44.5567 15.9789C44.2185 15.8098 43.9119 15.5613 43.6371 15.2336L42.1466 16.7241C42.5165 17.2527 43.0187 17.6597 43.653 17.9451ZM47.1096 12.3161C46.8665 12.4641 46.5758 12.5381 46.2375 12.5381C45.8992 12.5381 45.6032 12.4641 45.3495 12.3161C45.1064 12.1681 44.9161 11.9672 44.7787 11.7135C44.6413 11.4493 44.5726 11.1691 44.5726 10.8732C44.5726 10.556 44.6413 10.2706 44.7787 10.0169C44.9161 9.76323 45.1117 9.56238 45.3654 9.41438C45.6191 9.26638 45.9098 9.19238 46.2375 9.19238C46.5758 9.19238 46.8665 9.26638 47.1096 9.41438C47.3633 9.56238 47.5536 9.76323 47.6805 10.0169C47.8179 10.2706 47.8866 10.556 47.8866 10.8732C47.8866 11.1903 47.8179 11.4757 47.6805 11.7294C47.5536 11.9725 47.3633 12.1681 47.1096 12.3161Z" fill="white" fill-opacity="0.6"/>
<path fill-rule="evenodd" clip-rule="evenodd" d="M55.2756 15.1068C54.4826 15.1068 53.7636 14.9324 53.1191 14.5835C52.4846 14.2241 51.9826 13.7379 51.6126 13.1247C51.2426 12.5116 51.0576 11.8245 51.0576 11.0634C51.0576 10.3023 51.2426 9.62051 51.6126 9.01796C51.9826 8.41541 52.4846 7.93971 53.1191 7.59091C53.7531 7.23146 54.4721 7.05176 55.2756 7.05176C56.0786 7.05176 56.7976 7.22621 57.4316 7.57501C58.0661 7.92386 58.5681 8.40486 58.9381 9.01796C59.3081 9.62051 59.4931 10.3023 59.4931 11.0634C59.4931 11.8245 59.3081 12.5116 58.9381 13.1247C58.5681 13.7379 58.0661 14.2241 57.4316 14.5835C56.7976 14.9324 56.0786 15.1068 55.2756 15.1068ZM55.2756 12.9028C55.6241 12.9028 55.9306 12.8288 56.1951 12.6808C56.4591 12.5222 56.6601 12.3055 56.7976 12.0307C56.9456 11.7453 57.0196 11.4228 57.0196 11.0634C57.0196 10.704 56.9456 10.3922 56.7976 10.1279C56.6496 9.85306 56.4436 9.64166 56.1791 9.49366C55.9256 9.33506 55.6241 9.25581 55.2756 9.25581C54.9371 9.25581 54.6356 9.33506 54.3716 9.49366C54.1071 9.64166 53.9011 9.85306 53.7531 10.1279C53.6051 10.4028 53.5311 10.7199 53.5311 11.0793C53.5311 11.4281 53.6051 11.7453 53.7531 12.0307C53.9011 12.3055 54.1071 12.5222 54.3716 12.6808C54.6356 12.8288 54.9371 12.9028 55.2756 12.9028Z" fill="white" fill-opacity="0.6"/>
<path fill-rule="evenodd" clip-rule="evenodd" d="M68.6406 15.0909C68.1231 15.0909 67.6471 14.9905 67.2136 14.7897C66.9856 14.684 66.7796 14.5578 66.5956 14.4111V18.1829H64.201V7.22623H66.6271V7.75808C66.8031 7.61413 66.9986 7.48968 67.2136 7.38478C67.6471 7.17333 68.1231 7.06763 68.6406 7.06763C69.3701 7.06763 70.015 7.24208 70.575 7.59093C71.146 7.93973 71.5901 8.41543 71.9071 9.01798C72.2351 9.62053 72.3986 10.3076 72.3986 11.0793C72.3986 11.851 72.2351 12.5381 71.9071 13.1406C71.5901 13.7432 71.146 14.2188 70.575 14.5677C70.015 14.9165 69.3701 15.0909 68.6406 15.0909ZM68.1971 12.9028C68.5456 12.9028 68.8471 12.8235 69.1006 12.6649C69.3651 12.5064 69.5711 12.2896 69.7191 12.0148C69.8671 11.74 69.9411 11.4281 69.9411 11.0793C69.9411 10.7199 69.8671 10.4028 69.7191 10.1279C69.5711 9.85308 69.3651 9.64168 69.1006 9.49368C68.8471 9.33508 68.5511 9.25583 68.2126 9.25583C67.8746 9.25583 67.5731 9.33508 67.3091 9.49368C67.0551 9.64168 66.8546 9.85308 66.7066 10.1279C66.5586 10.4028 66.4846 10.7199 66.4846 11.0793C66.4846 11.4281 66.5531 11.74 66.6906 12.0148C66.8386 12.2896 67.0446 12.5064 67.3091 12.6649C67.5731 12.8235 67.8691 12.9028 68.1971 12.9028Z" fill="white" fill-opacity="0.6"/>
<path d="M74.773 14.9482C75.217 15.0645 75.666 15.1226 76.1205 15.1226C77.0825 15.1226 77.8435 14.9007 78.404 14.4567C78.9745 14.0127 79.26 13.4155 79.26 12.6649C79.26 12.1787 79.1705 11.7875 78.9905 11.4916C78.811 11.185 78.5785 10.9419 78.293 10.7622C78.0075 10.5825 77.706 10.4397 77.389 10.334C77.072 10.2283 76.7705 10.1385 76.4855 10.0645C76.2 9.99046 75.9675 9.90591 75.7875 9.81076C75.608 9.71561 75.518 9.58876 75.518 9.43021C75.518 9.28221 75.587 9.17121 75.724 9.09721C75.8615 9.01266 76.0675 8.97041 76.3425 8.97041C76.628 8.97041 76.9185 9.02851 77.2145 9.14481C77.521 9.26106 77.796 9.46196 78.039 9.74736L79.4185 8.35201C79.07 7.90801 78.6155 7.57501 78.055 7.35306C77.5055 7.12051 76.903 7.00421 76.2475 7.00421C75.624 7.00421 75.0795 7.10991 74.6145 7.32131C74.149 7.53276 73.7895 7.82346 73.536 8.19341C73.2825 8.55281 73.1555 8.98096 73.1555 9.47781C73.1555 9.94291 73.2455 10.3288 73.425 10.6353C73.6045 10.9313 73.8375 11.1639 74.1225 11.333C74.408 11.5021 74.7095 11.6343 75.0265 11.7294C75.3435 11.8245 75.645 11.9144 75.9305 11.999C76.2155 12.073 76.4485 12.1628 76.628 12.2685C76.8185 12.3637 76.9135 12.5064 76.9135 12.6966C76.9135 12.8446 76.834 12.9609 76.6755 13.0455C76.5275 13.13 76.311 13.1723 76.0255 13.1723C75.613 13.1723 75.2325 13.0983 74.884 12.9503C74.535 12.7918 74.2335 12.5751 73.98 12.3002L72.6005 13.6956C72.865 13.981 73.182 14.2347 73.552 14.4567C73.9325 14.6681 74.3395 14.8319 74.773 14.9482Z" fill="white" fill-opacity="0.6"/>
<path d="M83.6841 15.1068C82.9761 15.1068 82.3471 14.9641 81.7976 14.6787C81.2581 14.3827 80.8356 13.981 80.5291 13.4736C80.2221 12.9557 80.0691 12.3637 80.0691 11.6977V7.22626H82.4951V11.666C82.4951 11.9303 82.5371 12.1576 82.6221 12.3478C82.7171 12.5381 82.8546 12.6861 83.0341 12.7918C83.2141 12.8975 83.4306 12.9504 83.6841 12.9504C84.0436 12.9504 84.3291 12.8394 84.5406 12.6174C84.7521 12.3848 84.8576 12.0677 84.8576 11.666V7.22626H87.2836V11.6819C87.2836 12.3584 87.1306 12.9557 86.8236 13.4736C86.5171 13.981 86.0946 14.3827 85.5551 14.6787C85.0161 14.9641 84.3926 15.1068 83.6841 15.1068Z" fill="white" fill-opacity="0.6"/>
<path d="M90.9155 7.22623H88.4895V14.9324H90.9155V10.4292C90.9155 10.1649 90.9685 9.94293 91.074 9.76323C91.1905 9.58353 91.344 9.44608 91.534 9.35098C91.7245 9.24523 91.941 9.19238 92.184 9.19238C92.533 9.19238 92.8235 9.30338 93.056 9.52538C93.2995 9.73678 93.421 10.0381 93.421 10.4292V14.9324H95.847V10.4292C95.847 10.1649 95.9 9.94293 96.0055 9.76323C96.122 9.58353 96.275 9.44608 96.4655 9.35098C96.6555 9.24523 96.8725 9.19238 97.1155 9.19238C97.4645 9.19238 97.755 9.30338 97.9875 9.52538C98.2305 9.73678 98.352 10.0381 98.352 10.4292V14.9324H100.779V10.1596C100.779 9.51483 100.641 8.96513 100.366 8.51058C100.102 8.04543 99.737 7.69133 99.272 7.44823C98.8175 7.19448 98.294 7.06763 97.702 7.06763C97.0995 7.06763 96.555 7.19978 96.069 7.46408C95.753 7.63243 95.477 7.84973 95.2405 8.11593C95.02 7.83748 94.752 7.60963 94.4355 7.43233C94.013 7.18923 93.532 7.06763 92.993 7.06763C92.422 7.06763 91.9095 7.18923 91.455 7.43233C91.257 7.53348 91.0775 7.65463 90.9155 7.79578V7.22623Z" fill="white" fill-opacity="0.6"/>
</g>
<defs>
<clipPath id="clip0_198_48">
<rect width="101" height="20" fill="white"/>
</clipPath>
</defs>
</svg>
