<svg width="109" height="20" viewBox="0 0 109 20" fill="none" xmlns="http://www.w3.org/2000/svg">
<g clip-path="url(#clip0_198_36)">
<path d="M61.1775 14.7619H63.509V5.9676H61.1775V14.7619ZM61.1775 4.59619H63.509V2.50476H61.1775V4.59619Z" fill="white" fill-opacity="0.6"/>
<path d="M65.0115 17.6419H67.343V13.7676H67.377C67.874 14.5219 68.68 15.0191 69.914 15.0191C72.177 15.0191 73.72 13.2191 73.72 10.3734C73.72 7.63045 72.2285 5.7276 69.897 5.7276C68.697 5.7276 67.874 6.29335 67.3085 7.06475H67.257V5.9676H65.0115V17.6419ZM69.417 13.0819C68.0285 13.0819 67.2915 12.0362 67.2915 10.4419C67.2915 8.86475 67.874 7.61335 69.3315 7.61335C70.7715 7.61335 71.354 8.77905 71.354 10.4419C71.354 12.1048 70.6 13.0819 69.417 13.0819Z" fill="white" fill-opacity="0.6"/>
<path d="M78.3705 15.019C80.565 15.019 82.0735 13.9562 82.0735 12.1904C82.0735 10.1333 80.445 9.7219 78.9705 9.41335C77.719 9.1562 76.5535 9.0876 76.5535 8.33335C76.5535 7.69905 77.1535 7.3562 78.062 7.3562C79.0565 7.3562 79.6565 7.69905 79.759 8.6419H81.8675C81.6965 6.8762 80.4105 5.7276 78.0965 5.7276C76.0905 5.7276 74.5135 6.6362 74.5135 8.53905C74.5135 10.4591 76.0565 10.8876 77.6335 11.1962C78.8335 11.4362 79.9475 11.5219 79.9475 12.3619C79.9475 12.9791 79.365 13.3734 78.3365 13.3734C77.2905 13.3734 76.5705 12.9276 76.4165 11.9162H74.2565C74.3935 13.7847 75.8165 15.019 78.3705 15.019Z" fill="white" fill-opacity="0.6"/>
<path d="M90.9251 14.7619V5.96759H88.5936V11.0419C88.5936 12.2076 87.9251 13.0304 86.8281 13.0304C85.8336 13.0304 85.3711 12.4647 85.3711 11.4362V5.96759H83.0566V11.8304C83.0566 13.7504 84.1536 15.0019 86.1081 15.0019C87.3426 15.0019 88.0281 14.539 88.6281 13.7333H88.6796V14.7619H90.9251Z" fill="white" fill-opacity="0.6"/>
<path d="M92.4331 14.7619H94.7646V9.65335C94.7646 8.4876 95.3991 7.73335 96.3421 7.73335C97.1991 7.73335 97.6961 8.2476 97.6961 9.2419V14.7619H100.028V9.65335C100.028 8.4876 100.628 7.73335 101.605 7.73335C102.462 7.73335 102.959 8.2476 102.959 9.2419V14.7619H105.291V8.8476C105.291 6.9276 104.245 5.7276 102.393 5.7276C101.279 5.7276 100.353 6.31045 99.7531 7.27045H99.7191C99.2906 6.34475 98.3991 5.7276 97.2846 5.7276C96.0676 5.7276 95.2106 6.34475 94.7306 7.15045H94.6791V5.9676H92.4331V14.7619Z" fill="white" fill-opacity="0.6"/>
<path d="M0.412079 14.7619H2.7435V2.50476H0.412079V14.7619Z" fill="white" fill-opacity="0.6"/>
<path d="M8.4443 15.019C11.17 15.019 13.0386 12.9962 13.0386 10.3734C13.0386 7.75045 11.17 5.7276 8.4443 5.7276C5.71855 5.7276 3.84999 7.75045 3.84999 10.3734C3.84999 12.9962 5.71855 15.019 8.4443 15.019ZM8.4443 13.2362C7.0043 13.2362 6.2157 12.0876 6.2157 10.3734C6.2157 8.65905 7.0043 7.49335 8.4443 7.49335C9.86715 7.49335 10.6729 8.65905 10.6729 10.3734C10.6729 12.0876 9.86715 13.2362 8.4443 13.2362Z" fill="white" fill-opacity="0.6"/>
<path d="M17.9966 17.7619C19.2994 17.7619 20.4309 17.4533 21.168 16.7676C21.8194 16.1676 22.2137 15.3276 22.2137 14.0934V5.9676H19.968V6.89335H19.9337C19.4023 6.1562 18.5966 5.7276 17.4994 5.7276C15.2709 5.7276 13.6937 7.4076 13.6937 10.0304C13.6937 12.6876 15.6137 14.2304 17.568 14.2304C18.6823 14.2304 19.3509 13.7847 19.8651 13.2019H19.9166V14.1619C19.9166 15.3619 19.2823 15.9962 17.9623 15.9962C16.8823 15.9962 16.3851 15.5676 16.1966 15.019H13.8823C14.1223 16.7333 15.5966 17.7619 17.9966 17.7619ZM17.9623 12.3619C16.7623 12.3619 15.9737 11.4876 15.9737 9.9962C15.9737 8.5219 16.7623 7.5962 17.9451 7.5962C19.3509 7.5962 20.0366 8.69335 20.0366 9.97905C20.0366 11.2819 19.4366 12.3619 17.9623 12.3619Z" fill="white" fill-opacity="0.6"/>
<path d="M27.8806 15.019C30.6063 15.019 32.4749 12.9962 32.4749 10.3734C32.4749 7.75045 30.6063 5.7276 27.8806 5.7276C25.1549 5.7276 23.2863 7.75045 23.2863 10.3734C23.2863 12.9962 25.1549 15.019 27.8806 15.019ZM27.8806 13.2362C26.4406 13.2362 25.6521 12.0876 25.6521 10.3734C25.6521 8.65905 26.4406 7.49335 27.8806 7.49335C29.3035 7.49335 30.1092 8.65905 30.1092 10.3734C30.1092 12.0876 29.3035 13.2362 27.8806 13.2362Z" fill="white" fill-opacity="0.6"/>
<path d="M106.138 4.52379C106.138 4.1293 106.458 3.80951 106.852 3.80951H108.281C108.675 3.80951 108.995 4.1293 108.995 4.52379C108.995 4.91828 108.675 5.23808 108.281 5.23808H106.852C106.458 5.23808 106.138 4.91828 106.138 4.52379Z" fill="white" fill-opacity="0.6"/>
<path fill-rule="evenodd" clip-rule="evenodd" d="M46.6139 0C52.1365 0 56.614 4.47716 56.614 10C56.614 15.5229 52.1365 20 46.6139 20C41.091 20 36.6139 15.5229 36.6139 10C36.6139 4.47716 41.091 0 46.6139 0ZM46.2524 0.748295C45.1116 0.908845 44.0253 1.82554 43.182 3.3587C42.9374 3.80342 42.7167 4.29473 42.5244 4.82522C43.671 4.53709 44.9306 4.36721 46.2524 4.34094V0.748295ZM41.6792 5.0654C41.9184 4.31479 42.211 3.6242 42.5486 3.01032C42.9666 2.25029 43.4627 1.59398 44.0217 1.08988C40.9822 1.97262 38.5865 4.36839 37.7037 7.40785C38.2078 6.8489 38.8641 6.3528 39.6242 5.9348C40.2381 5.59715 40.9286 5.30455 41.6792 5.0654ZM41.4391 5.91055C41.1509 7.05715 40.9811 8.3167 40.9548 9.63855H37.3621C37.5227 8.4977 38.4394 7.4114 39.9726 6.5682C40.4173 6.3236 40.9086 6.1029 41.4391 5.91055ZM41.6778 9.63855C41.7077 8.196 41.9154 6.8417 42.259 5.6451C43.4556 5.3015 44.8099 5.0938 46.2524 5.06395V6.6254C45.7143 8.0031 44.6167 9.1006 43.2389 9.63855H41.6778ZM40.9548 10.3615H37.3621C37.5227 11.5023 38.4394 12.5885 39.9726 13.4318C40.4173 13.6764 40.9086 13.8971 41.4391 14.0894C41.1509 12.9428 40.9811 11.6833 40.9548 10.3615ZM42.259 14.3549C41.9154 13.1583 41.7077 11.804 41.6778 10.3615H43.2389C44.6167 10.8994 45.7143 11.9969 46.2524 13.3746V14.9361C44.8099 14.9062 43.4556 14.6985 42.259 14.3549ZM41.6792 14.9346C40.9286 14.6954 40.2381 14.4028 39.6242 14.0652C38.8641 13.6472 38.2078 13.1511 37.7037 12.5921C38.5865 15.6316 40.9822 18.0274 44.0217 18.9101C43.4627 18.406 42.9666 17.7497 42.5486 16.9897C42.211 16.3758 41.9184 15.6852 41.6792 14.9346ZM46.2524 19.2517C45.1116 19.0911 44.0253 18.1745 43.182 16.6413C42.9374 16.1966 42.7167 15.7052 42.5244 15.1748C43.671 15.4629 44.9306 15.6328 46.2524 15.659V19.2517ZM49.206 18.9101C49.765 18.406 50.261 17.7497 50.679 16.9897C51.0165 16.3758 51.3095 15.6852 51.5485 14.9346C52.299 14.6954 52.9895 14.4028 53.6035 14.0652C54.3635 13.6472 55.02 13.1511 55.524 12.5921C54.641 15.6316 52.2455 18.0274 49.206 18.9101ZM50.7035 15.1748C50.511 15.7052 50.29 16.1966 50.0455 16.6413C49.2024 18.1745 48.1161 19.0911 46.9753 19.2517V15.659C48.2971 15.6328 49.5567 15.4629 50.7035 15.1748ZM51.7885 14.0894C52.319 13.8971 52.8105 13.6764 53.255 13.4318C54.7885 12.5886 55.705 11.5023 55.8655 10.3615H52.273C52.2465 11.6833 52.0765 12.9428 51.7885 14.0894ZM51.55 10.3615C51.52 11.804 51.3125 13.1583 50.9685 14.3549C49.7721 14.6985 48.4178 14.9062 46.9753 14.9361V13.3757C47.5133 11.9975 48.6111 10.8996 49.9892 10.3615H51.55ZM52.273 9.63855H55.8655C55.705 8.4977 54.7885 7.4114 53.255 6.5682C52.8105 6.3236 52.319 6.1029 51.7885 5.91055C52.0765 7.05715 52.2465 8.3167 52.273 9.63855ZM50.9685 5.6451C51.3125 6.8417 51.52 8.196 51.55 9.63855H49.9893C48.6111 9.10045 47.5133 8.00245 46.9753 6.62425V5.06395C48.4178 5.0938 49.7721 5.3015 50.9685 5.6451ZM51.5485 5.0654C52.299 5.30455 52.9895 5.59715 53.6035 5.9348C54.3635 6.3528 55.02 6.8489 55.524 7.40785C54.641 4.36839 52.2455 1.97262 49.206 1.08988C49.765 1.59398 50.261 2.25029 50.679 3.01032C51.0165 3.6242 51.3095 4.31479 51.5485 5.0654ZM46.9753 0.748295C48.1161 0.908845 49.2024 1.82554 50.0455 3.3587C50.29 3.80342 50.511 4.29473 50.7035 4.82522C49.5567 4.53709 48.2971 4.36721 46.9753 4.34094V0.748295Z" fill="white" fill-opacity="0.6"/>
</g>
<defs>
<clipPath id="clip0_198_36">
<rect width="109" height="20" fill="white"/>
</clipPath>
</defs>
</svg>
