<svg width="53" height="20" viewBox="0 0 53 20" fill="none" xmlns="http://www.w3.org/2000/svg">
<g clip-path="url(#clip0_198_23)">
<path d="M24.2973 17.6191H25.6775V12.4619H24.2973V17.6191ZM24.2973 11.6577H25.6775V10.4312H24.2973V11.6577Z" fill="white" fill-opacity="0.6"/>
<path d="M26.5669 19.308H27.9471V17.036H27.9675C28.2618 17.4783 28.7388 17.7699 29.4694 17.7699C30.8091 17.7699 31.7225 16.7143 31.7225 15.0455C31.7225 13.437 30.8395 12.3212 29.4593 12.3212C28.7489 12.3212 28.2618 12.6529 27.9268 13.1053H27.8964V12.4619H26.5669V19.308ZM29.1752 16.6339C28.3531 16.6339 27.9167 16.0207 27.9167 15.0857C27.9167 14.1609 28.2618 13.427 29.1244 13.427C29.9769 13.427 30.3219 14.1106 30.3219 15.0857C30.3219 16.0609 29.8754 16.6339 29.1752 16.6339Z" fill="white" fill-opacity="0.6"/>
<path d="M34.4757 17.7699C35.7747 17.7699 36.6678 17.1466 36.6678 16.1111C36.6678 14.9048 35.7037 14.6635 34.8309 14.4826C34.09 14.3318 33.3999 14.2915 33.3999 13.8492C33.3999 13.4773 33.7551 13.2762 34.293 13.2762C34.8816 13.2762 35.2369 13.4773 35.2977 14.0302H36.5461C36.4445 12.9947 35.6834 12.3212 34.3133 12.3212C33.1259 12.3212 32.1922 12.854 32.1922 13.9698C32.1922 15.0958 33.1056 15.3471 34.0393 15.5281C34.7497 15.6688 35.4094 15.7191 35.4094 16.2117C35.4094 16.5736 35.0643 16.8048 34.4554 16.8048C33.8363 16.8048 33.4101 16.5434 33.3188 15.9503H32.04C32.1212 17.0461 32.9636 17.7699 34.4757 17.7699Z" fill="white" fill-opacity="0.6"/>
<path d="M41.9081 17.6191V12.4619H40.5278V15.4376C40.5278 16.1212 40.1321 16.6037 39.4825 16.6037C38.8939 16.6037 38.6199 16.272 38.6199 15.6688V12.4619H37.2498V15.9C37.2498 17.0259 37.8993 17.7598 39.0563 17.7598C39.787 17.7598 40.1929 17.4884 40.5482 17.0159H40.5786V17.6191H41.9081Z" fill="white" fill-opacity="0.6"/>
<path d="M42.8008 17.6191H44.1811V14.6233C44.1811 13.9397 44.5566 13.4974 45.1148 13.4974C45.6222 13.4974 45.9165 13.7989 45.9165 14.382V17.6191H47.2968V14.6233C47.2968 13.9397 47.652 13.4974 48.2304 13.4974C48.7379 13.4974 49.0322 13.7989 49.0322 14.382V17.6191H50.4124V14.1508C50.4124 13.0249 49.7933 12.3212 48.6973 12.3212C48.0376 12.3212 47.4896 12.663 47.1344 13.2259H47.1141C46.8603 12.6831 46.3326 12.3212 45.6729 12.3212C44.9524 12.3212 44.445 12.6831 44.1608 13.1556H44.1303V12.4619H42.8008V17.6191Z" fill="white" fill-opacity="0.6"/>
<path d="M24.3176 8.786H25.6978V1.59814H24.3176V8.786Z" fill="white" fill-opacity="0.6"/>
<path d="M29.0727 8.93679C30.6863 8.93679 31.7925 7.75054 31.7925 6.21244C31.7925 4.67434 30.6863 3.4881 29.0727 3.4881C27.459 3.4881 26.3528 4.67434 26.3528 6.21244C26.3528 7.75054 27.459 8.93679 29.0727 8.93679ZM29.0727 7.89129C28.2202 7.89129 27.7534 7.21774 27.7534 6.21244C27.7534 5.20714 28.2202 4.52355 29.0727 4.52355C29.915 4.52355 30.392 5.20714 30.392 6.21244C30.392 7.21774 29.915 7.89129 29.0727 7.89129Z" fill="white" fill-opacity="0.6"/>
<path d="M34.7277 10.5453C35.499 10.5453 36.1688 10.3643 36.6052 9.96219C36.9908 9.61034 37.2243 9.11774 37.2243 8.39394V3.62884H35.8948V4.1717H35.8745C35.5599 3.73942 35.0829 3.4881 34.4333 3.4881C33.114 3.4881 32.1803 4.47329 32.1803 6.01139C32.1803 7.56959 33.317 8.47434 34.474 8.47434C35.1336 8.47434 35.5294 8.21299 35.8339 7.87119H35.8643V8.43414C35.8643 9.13784 35.4888 9.50979 34.7074 9.50979C34.068 9.50979 33.7737 9.25849 33.6621 8.93679H32.292C32.4341 9.94209 33.3069 10.5453 34.7277 10.5453ZM34.7074 7.37859C33.997 7.37859 33.5301 6.86589 33.5301 5.99129C33.5301 5.12674 33.997 4.58387 34.6972 4.58387C35.5294 4.58387 35.9354 5.22724 35.9354 5.98124C35.9354 6.74524 35.5802 7.37859 34.7074 7.37859Z" fill="white" fill-opacity="0.6"/>
<path d="M40.5791 8.93679C42.1927 8.93679 43.2989 7.75054 43.2989 6.21244C43.2989 4.67434 42.1927 3.4881 40.5791 3.4881C38.9654 3.4881 37.8592 4.67434 37.8592 6.21244C37.8592 7.75054 38.9654 8.93679 40.5791 8.93679ZM40.5791 7.89129C39.7266 7.89129 39.2597 7.21774 39.2597 6.21244C39.2597 5.20714 39.7266 4.52355 40.5791 4.52355C41.4214 4.52355 41.8984 5.20714 41.8984 6.21244C41.8984 7.21774 41.4214 7.89129 40.5791 7.89129Z" fill="white" fill-opacity="0.6"/>
<path d="M44.5089 6.81567H50.4762V5.63947H44.5089V6.81567Z" fill="white" fill-opacity="0.6"/>
<path d="M50.9139 11.5859C50.9139 11.3545 51.1032 11.167 51.3369 11.167H52.1823C52.4161 11.167 52.6053 11.3545 52.6053 11.5859C52.6053 11.8172 52.4161 12.0047 52.1823 12.0047H51.3369C51.1032 12.0047 50.9139 11.8172 50.9139 11.5859Z" fill="white" fill-opacity="0.6"/>
<path fill-rule="evenodd" clip-rule="evenodd" d="M10.3586 0C15.934 0 20.4538 4.47715 20.4538 10C20.4538 15.5229 15.934 20 10.3586 20C4.78311 20 0.263321 15.5229 0.263321 10C0.263321 4.47715 4.78311 0 10.3586 0ZM9.99366 0.748295C8.842 0.908845 7.74535 1.82554 6.89407 3.3587C6.64714 3.80342 6.42434 4.29473 6.23016 4.82522C7.38768 4.53709 8.65923 4.36721 9.99366 4.34094V0.748295ZM5.37696 5.0654C5.61839 4.31479 5.91377 3.6242 6.25464 3.01032C6.67662 2.25029 7.17745 1.59398 7.74172 1.08988C4.67332 1.97262 2.25472 4.36839 1.36359 7.40785C1.87247 6.8489 2.53505 6.3528 3.30232 5.9348C3.92204 5.59715 4.6192 5.30455 5.37696 5.0654ZM5.13447 5.91055C4.84361 7.05715 4.67213 8.3167 4.6456 9.63855H1.01874C1.18082 8.4977 2.10625 7.4114 3.65401 6.5682C4.10296 6.3236 4.59896 6.1029 5.13447 5.91055ZM5.37555 9.63855C5.40568 8.196 5.61531 6.8417 5.96218 5.6451C7.17018 5.3015 8.53743 5.0938 9.99366 5.06395V6.6254C9.45039 8.0031 8.34234 9.1006 6.95146 9.63855H5.37555ZM4.6456 10.3615H1.01874C1.18082 11.5023 2.10625 12.5885 3.65401 13.4318C4.10296 13.6764 4.59896 13.8971 5.13447 14.0894C4.84361 12.9428 4.67213 11.6833 4.6456 10.3615ZM5.96218 14.3549C5.61531 13.1583 5.40568 11.804 5.37555 10.3615H6.95146C8.34234 10.8994 9.45044 11.9969 9.99366 13.3746V14.9361C8.53743 14.9062 7.17018 14.6985 5.96218 14.3549ZM5.37696 14.9346C4.6192 14.6954 3.92204 14.4028 3.30232 14.0652C2.53505 13.6472 1.87247 13.1511 1.36359 12.5921C2.25472 15.6316 4.67332 18.0274 7.74172 18.9101C7.17745 18.406 6.67662 17.7497 6.25464 16.9897C5.91377 16.3758 5.61839 15.6852 5.37696 14.9346ZM9.99366 19.2517C8.842 19.0911 7.74535 18.1745 6.89407 16.6413C6.64714 16.1966 6.42434 15.7052 6.23016 15.1748C7.38768 15.4629 8.65923 15.6328 9.99366 15.659V19.2517ZM12.9754 18.9101C13.5397 18.406 14.0405 17.7497 14.4625 16.9897C14.8033 16.3758 15.0987 15.6852 15.3402 14.9346C16.0979 14.6954 16.7951 14.4028 17.4148 14.0652C18.1821 13.6472 18.8447 13.1511 19.3535 12.5921C18.4624 15.6316 16.0438 18.0274 12.9754 18.9101ZM14.487 15.1748C14.2928 15.7052 14.07 16.1966 13.823 16.6413C12.9718 18.1745 11.8752 19.0911 10.7234 19.2517V15.659C12.0579 15.6328 13.3294 15.4629 14.487 15.1748ZM15.5826 14.0894C16.1181 13.8971 16.6142 13.6764 17.0631 13.4318C18.6109 12.5885 19.5363 11.5023 19.6984 10.3615H16.0715C16.045 11.6833 15.8735 12.9428 15.5826 14.0894ZM15.3416 10.3615C15.3115 11.804 15.1018 13.1583 14.7549 14.3549C13.5469 14.6985 12.1797 14.9062 10.7234 14.9361V13.3757C11.2665 11.9975 12.3748 10.8996 13.7661 10.3615H15.3416ZM16.0715 9.63855H19.6984C19.5363 8.4977 18.6109 7.4114 17.0631 6.5682C16.6142 6.3236 16.1181 6.1029 15.5826 5.91055C15.8735 7.05715 16.045 8.3167 16.0715 9.63855ZM14.7549 5.6451C15.1018 6.8417 15.3115 8.196 15.3416 9.63855H13.7661C12.3748 9.10045 11.2665 8.00245 10.7234 6.62425V5.06395C12.1797 5.0938 13.5469 5.3015 14.7549 5.6451ZM15.3402 5.0654C16.0979 5.30455 16.7951 5.59715 17.4148 5.9348C18.1821 6.3528 18.8447 6.8489 19.3535 7.40785C18.4624 4.36839 16.0438 1.97262 12.9754 1.08988C13.5397 1.59398 14.0405 2.25029 14.4625 3.01032C14.8033 3.6242 15.0987 4.31479 15.3402 5.0654ZM10.7234 0.748295C11.8752 0.908845 12.9718 1.82554 13.823 3.3587C14.07 3.80342 14.2928 4.29473 14.487 4.82522C13.3294 4.53709 12.0579 4.36721 10.7234 4.34094V0.748295Z" fill="white" fill-opacity="0.6"/>
</g>
<defs>
<clipPath id="clip0_198_23">
<rect width="53" height="20" fill="white"/>
</clipPath>
</defs>
</svg>
