<svg width="89" height="20" viewBox="0 0 89 20" fill="none" xmlns="http://www.w3.org/2000/svg">
<g clip-path="url(#clip0_198_68)">
<path d="M25.6785 10.401C25.6962 10.0594 25.6962 9.71704 25.6785 9.37538H6.26785C6.26376 9.46051 6.26018 9.54615 6.25813 9.6318H2.19175L2.18971 9.76H0V10.0164H2.1892L2.19226 10.1446H6.25813C6.26018 10.2308 6.26325 10.3159 6.26836 10.401H11.8411C11.8199 10.2309 11.8093 10.0596 11.8094 9.88821H19.9933C19.9933 10.0621 19.9831 10.2333 19.9616 10.401H25.6785ZM25.6381 8.86256H19.8649C19.82 8.68807 19.7636 8.51675 19.6961 8.34974H12.1081C12.0411 8.5159 11.9843 8.68667 11.9393 8.86256H6.30775C6.31695 8.77692 6.32718 8.69128 6.33844 8.60615H2.27206L2.28945 8.48103H0V8.22462H2.32986L2.35338 8.09333H6.41976C6.43511 8.00769 6.4525 7.92205 6.47091 7.83692H25.476C25.5476 8.17282 25.6023 8.51487 25.6381 8.86256ZM25.3517 7.3241H19.0961C18.9486 7.13948 18.7855 6.96791 18.6087 6.81128H13.195C13.0186 6.96821 12.8549 7.13949 12.7076 7.3241H6.59521C6.61822 7.23846 6.64278 7.15282 6.66835 7.06769H2.60197L2.64698 6.92359H0V6.66667H2.7324L2.7723 6.55436H6.83868C6.86937 6.46821 6.9021 6.38308 6.93586 6.29795H25.0105C25.1425 6.63128 25.2566 6.97436 25.3517 7.3241ZM24.7906 5.78564H7.1558C7.1957 5.69949 7.23662 5.61436 7.27907 5.52923H3.21321L3.28533 5.38769H0V5.13128H3.42394L3.4889 5.01641H7.55528C7.6049 4.93026 7.65605 4.84462 7.70822 4.76H24.2382C24.4418 5.08923 24.6269 5.43179 24.7906 5.78564ZM6.30775 10.9138H25.6386C25.6023 11.2615 25.5476 11.6041 25.476 11.9395H19.4465C19.5411 11.7754 19.625 11.6041 19.6966 11.4267H12.1071C12.1787 11.6041 12.2621 11.7754 12.3567 11.9395H6.4704C6.4522 11.8543 6.43515 11.7688 6.41925 11.6831H2.35338C2.34505 11.638 2.33704 11.5929 2.32934 11.5477H0V11.2913H2.28894C2.28306 11.251 2.27744 11.2106 2.27206 11.1703H6.33844C6.32708 11.0849 6.31685 10.9994 6.30775 10.9138ZM6.59469 12.4523H25.3512C25.2566 12.8026 25.1425 13.1446 25.0105 13.4779H17.8844C18.1436 13.3337 18.3864 13.1618 18.6087 12.9651H13.195C13.4173 13.1618 13.6601 13.3337 13.9193 13.4779H6.93586C6.90228 13.3929 6.86989 13.3075 6.83868 13.2215H2.7723L2.72831 13.0979H0V12.8415H2.6434C2.62945 12.7974 2.61581 12.7531 2.60248 12.7087H6.66835C6.64278 12.6236 6.61822 12.5385 6.59469 12.4523ZM7.1558 13.9908H24.7906C24.6271 14.3434 24.4426 14.6859 24.2382 15.0164H7.70822C7.65576 14.9317 7.6046 14.8463 7.55477 14.76H3.4889C3.46333 14.7159 3.43826 14.6718 3.41371 14.6272H0V14.3708H3.27612L3.21321 14.2477H7.27959C7.23708 14.1628 7.19582 14.0774 7.1558 13.9913V13.9908ZM8.65448 16.2985C8.72967 16.3856 8.80691 16.4708 8.88568 16.5549H23.0607C23.3626 16.2323 23.6424 15.8897 23.898 15.5292H8.04836C8.10974 15.6159 8.17214 15.7015 8.23659 15.7856H4.17021L4.27149 15.9164H0V16.1728H4.48069C4.51598 16.2154 4.55179 16.2569 4.5881 16.2985H8.65448ZM10.3511 17.8369C10.4754 17.9256 10.6017 18.0113 10.7296 18.0933H21.2168C21.6876 17.7902 22.1315 17.4471 22.5436 17.0677H9.40331C9.49794 17.1549 9.59461 17.2405 9.69282 17.3241H5.62644C5.68168 17.3713 5.73743 17.4174 5.79369 17.4626H0V17.719H6.12361C6.1768 17.759 6.23102 17.7985 6.28524 17.8369H10.3516H10.3511ZM13.9403 19.4185C14.596 19.5585 15.2758 19.6318 15.9729 19.6318C17.535 19.6318 19.0107 19.2626 20.3181 18.6062H11.6278C11.8099 18.6974 11.9945 18.7831 12.1823 18.8626H8.11588C8.18851 18.8933 8.26165 18.9236 8.3348 18.9528H0V19.2092H9.06624C9.96493 19.4841 10.9189 19.6318 11.9071 19.6318C12.6042 19.6318 13.2845 19.5585 13.9403 19.4185ZM8.04836 4.24718H23.898C23.6424 3.88673 23.3626 3.54406 23.0607 3.22154H8.88568C8.80691 3.30564 8.72967 3.39077 8.65397 3.47795H4.5881L4.49808 3.58359H0V3.84H4.28734C4.24796 3.88974 4.20909 3.94 4.17072 3.99077H8.23659C8.17214 4.07538 8.10974 4.16103 8.04836 4.24718ZM9.4028 2.70872H22.5431C22.1311 2.32936 21.6874 1.98621 21.2168 1.68308H10.7296C10.6017 1.76564 10.4754 1.85128 10.3511 1.93949H6.28524C6.22898 1.98 6.17271 2.02051 6.11747 2.06205H0V2.31846H5.78807C5.73385 2.36256 5.68014 2.40718 5.62695 2.45231H9.69282C9.59461 2.5359 9.49794 2.62154 9.4028 2.70872ZM11.6283 1.17026H20.3186C18.9697 0.493557 17.4818 0.142333 15.9735 0.144615C15.2758 0.144615 14.596 0.218462 13.9403 0.358462C13.2719 0.216 12.5904 0.144325 11.9071 0.144615C10.8155 0.144615 9.76647 0.325128 8.78696 0.657436H0V0.913846H12.1823C11.995 0.993448 11.8102 1.07896 11.6283 1.17026ZM56.9027 0C57.2388 0 57.5027 0.0841026 57.6945 0.252308C57.8945 0.412821 57.9942 0.636923 57.9942 0.926154C57.9942 1.21487 57.8945 1.44308 57.6945 1.61128C57.5027 1.77179 57.2388 1.85231 56.9027 1.85231C56.5672 1.85231 56.2991 1.77179 56.0992 1.61128C55.9073 1.44308 55.8112 1.21487 55.8112 0.926154C55.8112 0.637436 55.9073 0.413333 56.0992 0.252308C56.2991 0.0841026 56.5672 0 56.9027 0ZM57.8382 2.97026V8.20154C57.8382 8.53846 57.8945 8.76718 58.0065 8.88718C58.1262 9.00769 58.3262 9.06769 58.606 9.06769V9.32C58.3822 9.30904 58.1584 9.301 57.9344 9.2959C57.6267 9.27976 57.3187 9.27173 57.0106 9.2718C56.6991 9.2718 56.383 9.28 56.0633 9.2959C55.8234 9.3012 55.5835 9.30923 55.3437 9.32V9.06769C55.6235 9.06769 55.8194 9.00769 55.9314 8.88718C56.0511 8.76718 56.1114 8.53846 56.1114 8.20154V4.41333C56.1114 4.05282 56.0552 3.78769 55.9431 3.62C55.8393 3.44359 55.6393 3.35538 55.3437 3.35538V3.10256C55.5994 3.12667 55.8475 3.13846 56.0874 3.13846C56.4229 3.13846 56.7349 3.12667 57.0229 3.10256C57.3186 3.07077 57.5907 3.02667 57.8382 2.97026Z" fill="white" fill-opacity="0.6"/>
<path fill-rule="evenodd" clip-rule="evenodd" d="M61.2141 4.07381V2.97022C60.9665 3.02663 60.6944 3.07073 60.3987 3.10253C60.1026 3.12663 59.7906 3.13843 59.4627 3.13843C59.2228 3.13843 58.9753 3.12663 58.719 3.10253V3.35535C59.007 3.35535 59.207 3.44356 59.319 3.61997C59.431 3.78817 59.4867 4.05279 59.4867 4.4133V10.4266C59.4867 10.7471 59.431 10.9636 59.319 11.0759C59.2151 11.1882 59.031 11.2441 58.7671 11.2441V11.4969L59.4029 11.461C59.6947 11.4528 59.9866 11.4487 60.2785 11.4487C60.6862 11.4487 61.0703 11.4528 61.4299 11.4605C61.7977 11.4769 62.0856 11.4887 62.2938 11.4964V11.2441C61.9578 11.2441 61.6938 11.18 61.502 11.0518C61.3102 10.9318 61.2141 10.683 61.2141 10.3061V9.10099C61.3194 9.1892 61.4432 9.26202 61.5859 9.31996C61.8417 9.43279 62.1255 9.48868 62.4376 9.48868C62.8616 9.48868 63.2411 9.41227 63.5772 9.25996C63.9188 9.10933 64.2192 8.87836 64.4528 8.58663C64.7004 8.28202 64.8886 7.9092 65.0165 7.46817C65.1526 7.02714 65.2206 6.51432 65.2206 5.92868C65.2206 5.26355 65.1244 4.71022 64.9326 4.2692C64.7408 3.81997 64.4846 3.48766 64.1649 3.27125C63.8454 3.04675 63.4635 2.92886 63.0733 2.93432C62.6094 2.93432 62.2018 3.05432 61.8498 3.29484C61.5731 3.48202 61.3614 3.7415 61.2141 4.07432V4.07381ZM61.2141 4.48714V8.84663C61.2806 8.92561 61.3609 8.99125 61.454 9.04355C61.6059 9.12355 61.7777 9.16355 61.97 9.16355C62.3296 9.16355 62.6135 9.04356 62.8217 8.80304C63.0294 8.55432 63.1772 8.20971 63.2652 7.76868C63.3613 7.31997 63.4094 6.78663 63.4094 6.1692C63.4094 5.47997 63.3654 4.93843 63.2774 4.54561C63.1895 4.15279 63.0693 3.87227 62.9173 3.70407C62.7654 3.53535 62.5818 3.45125 62.3654 3.45125C62.078 3.45125 61.814 3.56407 61.5742 3.78817C61.3936 3.96253 61.2734 4.19586 61.2141 4.48714Z" fill="white" fill-opacity="0.6"/>
<path d="M67.9745 2.93438C68.3106 2.93438 68.6021 2.97848 68.8502 3.06669C69.106 3.14669 69.2901 3.2272 69.4021 3.3072C69.6737 3.49182 69.842 3.3713 69.9059 2.94618H70.1576C70.1417 3.17079 70.1294 3.44771 70.1218 3.77592C70.1136 4.09695 70.1095 4.52566 70.1095 5.0631H69.8578C69.8168 4.76241 69.7402 4.46769 69.6297 4.18515C69.5279 3.91095 69.3589 3.66686 69.1382 3.47541C68.93 3.29079 68.6584 3.19848 68.3223 3.19848C68.0906 3.19848 67.8947 3.2672 67.7346 3.40361C67.5745 3.53182 67.4947 3.72002 67.4947 3.96874C67.4947 4.20925 67.5669 4.42156 67.7106 4.60618C67.8548 4.78259 68.0385 4.95489 68.2625 5.1231C68.4942 5.28361 68.7341 5.45592 68.9822 5.64002C69.2461 5.84053 69.486 6.04105 69.7018 6.24156C69.9088 6.42293 70.0832 6.63853 70.2174 6.879C70.3458 7.1113 70.4097 7.38771 70.4097 7.70874C70.4097 8.06925 70.3054 8.38566 70.0977 8.65848C69.8896 8.9231 69.6139 9.12771 69.2701 9.27182C68.9341 9.41643 68.5581 9.48874 68.1428 9.48874C67.9247 9.49122 67.707 9.46694 67.4947 9.41643C67.3284 9.3749 67.1675 9.31433 67.015 9.23592C66.9111 9.18771 66.8109 9.14361 66.7152 9.10361C66.6336 9.05861 66.5494 9.01854 66.4631 8.98361C66.3833 8.95951 66.3111 8.9872 66.2472 9.06771C66.1915 9.14771 66.1475 9.26002 66.1152 9.40412H65.8636C65.8794 9.14771 65.8917 8.83489 65.8994 8.46618C65.9076 8.09746 65.9117 7.60823 65.9117 6.99951H66.1633C66.2114 7.43233 66.2994 7.81694 66.4273 8.15336C66.5551 8.48259 66.727 8.7431 66.9428 8.93541C67.1669 9.12002 67.4467 9.21233 67.7827 9.21233C67.9188 9.21233 68.0507 9.18412 68.1786 9.12771C68.3065 9.0713 68.4103 8.979 68.4906 8.85079C68.5786 8.72259 68.6226 8.55848 68.6226 8.35848C68.6226 8.00515 68.5065 7.71233 68.2743 7.48002C68.0507 7.24771 67.7628 6.99489 67.4109 6.72259C67.1551 6.51387 66.9111 6.30977 66.6794 6.10925C66.4646 5.91216 66.2787 5.68544 66.1275 5.43592C65.9814 5.17977 65.9069 4.88889 65.9117 4.59387C65.9117 4.23336 66.0073 3.92874 66.1991 3.68002C66.3949 3.42871 66.6567 3.2371 66.9551 3.12669C67.2795 2.9976 67.6256 2.9323 67.9745 2.93438ZM82.8646 3.06669C82.6565 2.97848 82.3849 2.93438 82.0488 2.93438C81.6726 2.93055 81.3015 3.02154 80.9695 3.199C80.6417 3.3672 80.3818 3.65182 80.1895 4.05284V2.97079C79.942 3.02669 79.6698 3.07079 79.3742 3.10259C79.0862 3.12669 78.7742 3.13848 78.4387 3.13848C78.1988 3.13848 77.9507 3.12669 77.695 3.10259V3.35541C77.9906 3.35541 78.1906 3.44361 78.2944 3.62002C78.4065 3.78823 78.4622 4.05284 78.4622 4.41336V8.20156C78.4622 8.53848 78.4024 8.7672 78.2827 8.8872C78.1706 9.00771 77.9747 9.06771 77.695 9.06771V9.32002C77.9347 9.30926 78.1747 9.30122 78.4146 9.29592C78.7262 9.28009 79.0382 9.27206 79.3502 9.27182C79.6299 9.27182 79.9021 9.28002 80.1655 9.29592C80.4376 9.30412 80.6376 9.31233 80.7655 9.32002V9.06771C80.5578 9.06771 80.4095 9.00771 80.3215 8.8872C80.2335 8.7672 80.1895 8.53848 80.1895 8.20156V4.85848C80.1895 4.59387 80.2417 4.35746 80.3455 4.14874C80.4575 3.93233 80.6013 3.76412 80.7772 3.64412C80.9462 3.52608 81.1473 3.46305 81.3532 3.46361C81.5373 3.46361 81.6729 3.50771 81.7608 3.59592C81.857 3.67592 81.9209 3.79233 81.9532 3.94464C81.9849 4.08874 82.0007 4.26105 82.0007 4.46156V8.20156C82.0007 8.53848 81.9567 8.7672 81.8688 8.8872C81.789 9.00771 81.6411 9.06771 81.4253 9.06771V9.32002C81.569 9.31233 81.7808 9.30412 82.0611 9.29592C82.6284 9.26347 83.1971 9.26347 83.7644 9.29592C84.06 9.30412 84.2799 9.31233 84.4237 9.32002V9.06771C84.1679 9.06771 83.9879 9.00771 83.884 8.8872C83.7802 8.7672 83.728 8.53848 83.728 8.20156V4.91182L83.7275 4.87438L83.7255 4.75284C83.7439 4.55182 83.7975 4.35564 83.884 4.17336C83.9961 3.95643 84.1398 3.78412 84.3157 3.65592C84.4917 3.52771 84.684 3.46361 84.8917 3.46361C85.0994 3.46361 85.2518 3.50771 85.3474 3.59592C85.4513 3.67592 85.5193 3.79233 85.5515 3.94464C85.5914 4.08874 85.6114 4.26105 85.6114 4.46156V8.20156C85.6114 8.53848 85.5674 8.7672 85.4794 8.8872C85.3996 9.00771 85.2518 9.06771 85.0354 9.06771V9.32002C85.1797 9.31233 85.3914 9.30412 85.6712 9.29592C85.9548 9.27978 86.2388 9.27174 86.5228 9.27182C86.819 9.27182 87.1187 9.28002 87.4226 9.29592C87.7264 9.30412 87.9545 9.31233 88.1064 9.32002V9.06771C87.8266 9.06771 87.6266 9.00771 87.5064 8.8872C87.3944 8.7672 87.3387 8.53848 87.3387 8.20156V4.96669C87.3387 4.56566 87.3105 4.24515 87.2548 4.00464C87.1985 3.75592 87.107 3.55592 86.9786 3.40361C86.8507 3.259 86.6829 3.1472 86.4748 3.06669C86.2671 2.97848 85.995 2.93438 85.6594 2.93438C85.2518 2.93438 84.8676 3.01848 84.5081 3.18669C84.1633 3.35182 83.884 3.66669 83.6697 4.1313C83.6624 4.08885 83.6538 4.04661 83.6442 4.00464C83.5884 3.75592 83.4963 3.55592 83.3685 3.40361C83.2406 3.259 83.0723 3.1472 82.8646 3.06669ZM76.7538 8.00925V2.97028C76.5057 3.02669 76.2341 3.07079 75.938 3.10259C75.6505 3.12669 75.3385 3.13848 75.0025 3.13848C74.7626 3.13848 74.515 3.12669 74.2587 3.10259V3.35541C74.5549 3.35541 74.7549 3.44361 74.8587 3.62002C74.9707 3.78823 75.0265 4.05284 75.0265 4.41336V7.56412C75.0265 7.82874 74.9707 8.06925 74.8587 8.28566C74.7637 8.48381 74.619 8.65381 74.4388 8.779C74.271 8.89937 74.0691 8.96264 73.8628 8.95951C73.6634 8.95951 73.5114 8.919 73.4071 8.839C73.2993 8.74443 73.2238 8.61834 73.1913 8.47848C73.1573 8.30417 73.1412 8.12684 73.1432 7.94925V2.97028C72.8956 3.02669 72.6235 3.07079 72.3279 3.10259C72.0399 3.12669 71.7279 3.13848 71.3923 3.13848C71.1524 3.13848 70.9044 3.12669 70.6486 3.10259V3.35541C70.9443 3.35541 71.1443 3.44361 71.2481 3.62002C71.3601 3.78823 71.4159 4.05284 71.4159 4.41336V7.45592C71.4159 7.84874 71.444 8.16977 71.5003 8.41797C71.556 8.66669 71.6522 8.8672 71.7877 9.01951C71.9079 9.15592 72.0716 9.26823 72.2798 9.35643C72.4874 9.44412 72.7596 9.48874 73.0956 9.48874C73.5115 9.48874 73.8869 9.40412 74.2229 9.23592C74.5667 9.05951 74.8347 8.77079 75.0265 8.37028V9.45233C75.2944 9.3862 75.5673 9.34195 75.8423 9.32002C76.1303 9.29592 76.4418 9.28412 76.7778 9.28412C77.0259 9.28412 77.2735 9.29592 77.5216 9.32002V9.06771C77.2336 9.06771 77.0336 8.98361 76.9216 8.81489C76.8096 8.63848 76.7538 8.37028 76.7538 8.00977V8.00925Z" fill="white" fill-opacity="0.6"/>
<path fill-rule="evenodd" clip-rule="evenodd" d="M53.5515 3.25896C53.1116 3.04255 52.5996 2.93435 52.016 2.93435C51.4482 2.93435 50.9403 3.04255 50.4927 3.25896C50.0528 3.47537 49.705 3.82409 49.4493 4.30512C49.2012 4.78614 49.0769 5.42358 49.0769 6.21743C49.0769 7.01127 49.2012 7.6482 49.4488 8.12973C49.7045 8.60255 50.0523 8.94717 50.4922 9.16358C50.9403 9.37999 51.4482 9.48871 52.016 9.48871C52.5996 9.48871 53.1116 9.37999 53.5515 9.16358C53.9908 8.94717 54.3351 8.60255 54.5826 8.12973C54.8307 7.64871 54.9545 7.01127 54.9545 6.21743C54.9545 5.42358 54.8307 4.78666 54.5826 4.30512C54.3351 3.82409 53.9908 3.47537 53.5515 3.25896ZM51.2124 3.8964C51.4282 3.41537 51.6963 3.17486 52.016 3.17486C52.3438 3.17486 52.6118 3.41537 52.8195 3.8964C53.0354 4.36922 53.1433 5.14307 53.1433 6.21743C53.1433 7.29178 53.0354 8.06563 52.8195 8.53845C52.6118 9.01127 52.3438 9.24819 52.016 9.24819C51.6963 9.24819 51.4282 9.01127 51.2124 8.53845C50.9965 8.06563 50.8886 7.29178 50.8886 6.21743C50.8886 5.14307 50.996 4.36922 51.2124 3.8964ZM45.1655 11.581C44.6694 11.581 44.2259 11.5369 43.8341 11.4487C43.4505 11.3687 43.1466 11.2405 42.9226 11.0641C42.7068 10.8954 42.5988 10.6872 42.5988 10.4385C42.5988 10.1897 42.7103 9.96563 42.9344 9.76512C43.1584 9.57281 43.4904 9.4205 43.9303 9.30819L44.0377 9.5005C43.9003 9.6039 43.7861 9.73489 43.7021 9.88512C43.6382 10.0297 43.606 10.1779 43.606 10.3302C43.606 10.6672 43.7579 10.9236 44.0622 11.0995C44.3742 11.2841 44.7937 11.3764 45.3215 11.3764C45.6811 11.3764 46.0013 11.3282 46.2811 11.2323C46.5691 11.1359 46.7926 10.9913 46.9527 10.7995C47.121 10.6067 47.2048 10.3702 47.2048 10.0897C47.2048 9.84922 47.1169 9.64461 46.9409 9.4764C46.765 9.31589 46.413 9.23589 45.8852 9.23589H45.1415C44.8141 9.23589 44.5256 9.19999 44.2781 9.12768C44.0377 9.05589 43.8499 8.94307 43.7139 8.79076C43.5783 8.63076 43.5103 8.43025 43.5103 8.18973C43.5103 7.85281 43.6423 7.5564 43.9062 7.29948C44.1129 7.09845 44.3983 6.90717 44.7625 6.72614C44.523 6.69629 44.2879 6.63864 44.0617 6.55435C43.7021 6.41794 43.4182 6.20922 43.2106 5.92871C43.0024 5.6482 42.8986 5.28768 42.8986 4.84666C42.8986 4.40563 43.0024 4.04461 43.2106 3.76409C43.4182 3.47537 43.7021 3.26666 44.0622 3.13845C44.4218 3.00255 44.8295 2.93435 45.2852 2.93435C45.7415 2.93435 46.1491 3.00255 46.5087 3.13896C46.746 3.22307 46.9496 3.34255 47.121 3.4964C47.2227 3.34922 47.3465 3.21794 47.4923 3.10255C47.7644 2.89435 48.0565 2.78973 48.368 2.78973C48.6237 2.78973 48.816 2.86204 48.9439 3.00666C49.08 3.14255 49.148 3.32307 49.148 3.54768C49.148 3.7882 49.0836 3.9682 48.9557 4.08871C48.8278 4.20153 48.6841 4.25743 48.524 4.25743C48.3832 4.25556 48.2475 4.2044 48.1404 4.11281C48.0278 4.0164 47.9644 3.8723 47.9486 3.67999C47.9347 3.50768 47.9828 3.29435 48.0928 3.03896C47.8596 3.13845 47.6795 3.25179 47.5527 3.37948C47.457 3.47192 47.3735 3.57617 47.3041 3.68973C47.3235 3.71384 47.3424 3.73896 47.3603 3.76409C47.5685 4.04461 47.6723 4.40512 47.6723 4.84614C47.6723 5.28717 47.5685 5.6482 47.3603 5.92871C47.1527 6.20922 46.8688 6.41794 46.5087 6.55435C46.1491 6.69025 45.7415 6.75845 45.2852 6.75845C45.217 6.75852 45.1488 6.75698 45.0806 6.75384C44.9727 6.82717 44.8688 6.90512 44.7696 6.98717C44.708 7.03551 44.6585 7.09767 44.6252 7.16865C44.5919 7.23964 44.5757 7.31747 44.5778 7.39589C44.5778 7.6523 44.7379 7.7805 45.0576 7.7805H46.365C46.8049 7.7805 47.1967 7.83281 47.5404 7.93691C47.8923 8.04153 48.168 8.21384 48.368 8.45435C48.5762 8.68666 48.68 8.99127 48.68 9.36819C48.68 9.76102 48.5521 10.1256 48.2964 10.4626C48.0483 10.7995 47.6647 11.0677 47.1445 11.2682C46.6248 11.4769 45.965 11.581 45.1655 11.581ZM45.2852 6.54204C45.5016 6.54204 45.6688 6.42204 45.789 6.18153C45.9092 5.93281 45.9691 5.48768 45.9691 4.84666C45.9691 4.20512 45.9092 3.76409 45.789 3.52358C45.6693 3.27486 45.5016 3.15076 45.2857 3.15076C45.0775 3.15076 44.9098 3.27486 44.7819 3.52358C44.6617 3.76409 44.6018 4.20512 44.6018 4.84666C44.6018 5.48768 44.6617 5.93281 44.7819 6.18153C44.9098 6.42204 45.0775 6.54204 45.2852 6.54204ZM41.0459 3.25896C40.6061 3.04255 40.0946 2.93435 39.5109 2.93435C38.9432 2.93435 38.4353 3.04255 37.9877 3.25896C37.5478 3.47537 37.2 3.82409 36.9443 4.30512C36.6962 4.78614 36.5719 5.42358 36.5719 6.21743C36.5719 7.01127 36.6962 7.6482 36.9438 8.12973C37.1995 8.60255 37.5473 8.94717 37.9872 9.16358C38.4353 9.37999 38.9432 9.48871 39.5109 9.48871C40.0946 9.48871 40.6066 9.37999 41.0459 9.16358C41.4858 8.94717 41.8295 8.60255 42.0776 8.12973C42.3257 7.64871 42.4495 7.01127 42.4495 6.21743C42.4495 5.42358 42.3257 4.78666 42.0776 4.30512C41.8301 3.82409 41.4858 3.47537 41.0459 3.25896ZM38.7069 3.8964C38.9232 3.41537 39.1908 3.17486 39.5109 3.17486C39.8383 3.17486 40.1063 3.41537 40.314 3.8964C40.5304 4.36922 40.6383 5.14307 40.6383 6.21743C40.6383 7.29178 40.5304 8.06563 40.3145 8.53845C40.1063 9.01127 39.8388 9.24819 39.5109 9.24819C39.1908 9.24819 38.9227 9.01127 38.7069 8.53845C38.491 8.06563 38.3831 7.29178 38.3831 6.21743C38.3831 5.14307 38.491 4.36922 38.7069 3.8964Z" fill="white" fill-opacity="0.6"/>
<path d="M33.3414 0.805664V1.04669C33.0698 1.05438 32.8616 1.08618 32.7179 1.14259C32.6521 1.16492 32.5926 1.20282 32.5445 1.25308C32.4965 1.30333 32.4612 1.36447 32.4417 1.43131C32.3941 1.5672 32.37 1.78413 32.37 2.08054V8.18977C32.37 8.43797 32.3859 8.62259 32.4181 8.7431C32.458 8.8631 32.5301 8.9431 32.634 8.98361C32.746 9.02361 32.9102 9.04361 33.1255 9.04361H33.7137C33.9848 9.04361 34.2411 8.97951 34.481 8.85131C34.7214 8.7231 34.9367 8.54259 35.1285 8.30977C35.3308 8.05119 35.4928 7.76328 35.6088 7.45592C35.7367 7.12772 35.8323 6.76259 35.8963 6.36156H36.1725C36.1485 6.63438 36.1367 6.9872 36.1367 7.42002C36.1367 7.60464 36.1403 7.87285 36.1485 8.22567C36.1566 8.57849 36.1802 8.94361 36.2201 9.32002C35.7606 9.30304 35.3008 9.295 34.8411 9.29592C34.3296 9.28823 33.8733 9.28413 33.4733 9.28413H32.7061C32.3941 9.28413 32.058 9.28823 31.6985 9.29592C31.3384 9.29592 30.9747 9.30002 30.6069 9.30823C30.2386 9.30823 29.8908 9.31233 29.5635 9.32002V9.07951C29.8192 9.06361 30.011 9.03131 30.1389 8.98361C30.2668 8.93541 30.3507 8.839 30.3911 8.6949C30.4386 8.55028 30.4627 8.33387 30.4627 8.04515V2.08054C30.4627 1.78361 30.4386 1.56772 30.3911 1.43131C30.3753 1.36459 30.3428 1.30304 30.2966 1.2525C30.2504 1.20196 30.1921 1.16412 30.1271 1.14259C29.9993 1.08618 29.811 1.05438 29.5635 1.04618V0.805664C30.1949 0.82912 30.8267 0.841088 31.4586 0.841562C31.8105 0.841562 32.1542 0.837972 32.4897 0.829767C32.834 0.821562 33.1178 0.813869 33.3414 0.805664Z" fill="white" fill-opacity="0.6"/>
<path fill-rule="evenodd" clip-rule="evenodd" d="M86.888 19.258C86.8712 19.1718 86.8824 19.0595 86.9228 18.921L88.6123 12.7841C88.3418 12.8953 88.0619 12.982 87.776 13.0431C87.4829 13.101 87.1469 13.1323 86.7673 13.1385L86.707 13.32C86.9888 13.32 87.1643 13.3662 87.2333 13.4585C87.3018 13.5508 87.3105 13.6944 87.2589 13.8903L86.8589 15.4026C86.8337 15.3296 86.7904 15.2643 86.7331 15.2128C86.6354 15.1205 86.5003 15.0744 86.328 15.0744C85.9832 15.0744 85.664 15.1523 85.371 15.3077C85.0761 15.4692 84.8108 15.6797 84.5863 15.9303C84.3505 16.1842 84.1503 16.4692 83.9915 16.7775C83.8349 17.0774 83.7106 17.3932 83.6206 17.7195C83.5389 18.0006 83.4954 18.2914 83.4912 18.5841C83.4912 18.8605 83.5347 19.0882 83.6206 19.2667C83.7071 19.4395 83.8247 19.5692 83.9741 19.6554C84.1234 19.7364 84.2902 19.7764 84.4743 19.7764C84.7556 19.7764 85.0088 19.6933 85.2328 19.5262C85.4569 19.3533 85.6666 19.0882 85.8625 18.7308C85.9443 18.5851 86.0267 18.4216 86.1085 18.24L86.0517 18.4544C85.9998 18.6232 85.9652 18.7969 85.9484 18.9728C85.9372 19.1226 85.9484 19.2498 85.9832 19.3533C86.0518 19.6354 86.2645 19.7769 86.621 19.7769C86.753 19.7769 86.888 19.7508 87.0262 19.699C87.1643 19.6472 87.2932 19.558 87.4139 19.4308C87.5407 19.3041 87.641 19.1231 87.7156 18.8862L87.9228 18.2554H87.7591L87.621 18.6441C87.5177 18.9385 87.42 19.1369 87.3279 19.2405C87.2415 19.339 87.1525 19.3877 87.0604 19.3877C86.9627 19.3877 86.9054 19.3446 86.888 19.258ZM86.4282 17.0323C86.3633 17.2431 86.2927 17.4436 86.2159 17.6328C86.0722 18.0021 85.9198 18.319 85.7587 18.5841C85.6037 18.8431 85.4513 19.0446 85.3019 19.1892C85.1525 19.3272 85.0201 19.3964 84.9055 19.3964C84.796 19.3964 84.7157 19.3446 84.6641 19.241C84.618 19.1313 84.595 18.9672 84.595 18.7482C84.595 18.4369 84.6293 18.12 84.6983 17.7975C84.7674 17.4692 84.862 17.1549 84.9827 16.8554C85.0939 16.5743 85.2325 16.305 85.3965 16.0513C85.552 15.8092 85.7157 15.619 85.8881 15.4805C86.0661 15.3421 86.2415 15.2733 86.4139 15.2733C86.529 15.2733 86.621 15.3139 86.6901 15.3944C86.7382 15.4467 86.775 15.5226 86.8006 15.6231L86.4282 17.0323Z" fill="white" fill-opacity="0.6"/>
<path d="M81.1513 19.6554H80.0909L81.1252 15.9303C81.1774 15.7574 81.1942 15.6364 81.1774 15.5672C81.16 15.4979 81.1083 15.4636 81.0219 15.4636C80.9129 15.4636 80.8121 15.5185 80.7201 15.6277C80.628 15.7369 80.5334 15.9303 80.4357 16.2072L80.2889 16.6128H80.1252L80.3492 15.9646C80.4301 15.7338 80.5303 15.5559 80.651 15.4287C80.7717 15.2964 80.9042 15.2041 81.0479 15.1523C81.1917 15.1005 81.338 15.0744 81.4873 15.0744C81.6715 15.0744 81.8065 15.1118 81.8924 15.1872C81.9845 15.262 82.0423 15.36 82.0653 15.481C82.0944 15.6115 82.1001 15.746 82.0822 15.8785C82.0709 16.0169 82.0479 16.1523 82.0131 16.2846L81.8745 16.8267L81.9098 16.7344C82.0709 16.3251 82.2259 15.9995 82.3753 15.7574C82.5308 15.5097 82.6944 15.3338 82.8668 15.2303C83.0357 15.1273 83.2298 15.0734 83.4274 15.0744C83.6341 15.0744 83.7921 15.1349 83.9016 15.2559C84.0167 15.3769 84.0739 15.5267 84.0739 15.7056C84.0739 15.8492 84.0392 15.9851 83.9706 16.1118C83.9036 16.2306 83.8088 16.3315 83.6944 16.4056C83.5855 16.4749 83.4591 16.5092 83.3154 16.5092C83.1717 16.5092 83.0566 16.4718 82.9701 16.3969C82.8898 16.322 82.8494 16.2123 82.8494 16.0687C82.8494 15.9415 82.8786 15.8267 82.9359 15.7226C82.9913 15.6212 83.0677 15.5329 83.1599 15.4636C83.252 15.3887 83.3527 15.3369 83.4617 15.3077C83.4496 15.2958 83.4349 15.287 83.4187 15.282C83.3992 15.2759 83.3788 15.273 83.3584 15.2733C83.232 15.2733 83.1026 15.3195 82.9701 15.4118C82.8382 15.4979 82.7001 15.6395 82.5563 15.8354C82.4126 16.0313 82.2663 16.2903 82.117 16.6128C81.9484 16.9942 81.7987 17.3838 81.6684 17.78C81.6034 17.9718 81.538 18.1779 81.4725 18.399L81.1513 19.6554Z" fill="white" fill-opacity="0.6"/>
<path fill-rule="evenodd" clip-rule="evenodd" d="M77.9298 18.32L77.8935 18.4544C77.839 18.6496 77.8016 18.8491 77.7815 19.0508C77.7641 19.2354 77.7927 19.3908 77.8674 19.5175C77.9825 19.6903 78.1779 19.7769 78.4536 19.7769C78.5861 19.7769 78.718 19.7508 78.8505 19.699C78.9881 19.6472 79.1175 19.558 79.2382 19.4308C79.3589 19.2985 79.4597 19.1139 79.54 18.878L79.7559 18.2472H79.5917L79.4623 18.6359C79.3589 18.9354 79.2587 19.1344 79.161 19.2323C79.0633 19.3298 78.9682 19.379 78.8761 19.379C78.8014 19.379 78.7528 19.3559 78.7298 19.3098C78.7118 19.2511 78.7059 19.1893 78.7124 19.1282C78.7236 19.0549 78.7409 18.9827 78.7641 18.9123L79.8766 15.0744C79.7034 15.1159 79.5275 15.1448 79.3502 15.161C79.1722 15.1785 78.9799 15.1898 78.7728 15.1954L78.648 15.658C78.6427 15.5405 78.6087 15.4262 78.5487 15.3251C78.5038 15.2464 78.4383 15.1814 78.3592 15.1372C78.2802 15.093 78.1906 15.0713 78.1001 15.0744C77.8475 15.0744 77.5948 15.1523 77.3416 15.3077C77.0727 15.4772 76.8313 15.6872 76.626 15.9303C76.394 16.1953 76.1916 16.4851 76.0225 16.7944C75.8529 17.1045 75.7171 17.432 75.6174 17.7713C75.5233 18.0765 75.474 18.3939 75.4711 18.7133C75.4711 19.0364 75.5457 19.2954 75.6951 19.4913C75.8445 19.6816 76.0741 19.7764 76.3846 19.7764C76.603 19.7764 76.8127 19.7133 77.0142 19.5867C77.2209 19.4595 77.4163 19.2492 77.6004 18.9559C77.7145 18.779 77.8239 18.5672 77.9298 18.32ZM77.1866 19.1975C77.0541 19.3185 76.9365 19.379 76.8332 19.379C76.7467 19.379 76.6807 19.3359 76.6347 19.2492C76.5943 19.1569 76.5744 19.0046 76.5744 18.7913C76.5744 18.4857 76.6086 18.1718 76.6777 17.8492C76.7467 17.5262 76.8388 17.2154 76.9539 16.9159C77.0746 16.6159 77.2066 16.3482 77.3503 16.1118C77.494 15.8759 77.6378 15.6882 77.7815 15.5498C77.9308 15.4113 78.0715 15.3426 78.204 15.3426C78.3416 15.3426 78.4393 15.4118 78.4971 15.5498C78.5544 15.6749 78.5692 15.8426 78.5416 16.0523L78.2868 16.9969L78.316 16.8467C78.2239 17.2154 78.1145 17.5554 77.9881 17.8667C77.8781 18.145 77.7456 18.4137 77.5917 18.6703C77.4536 18.8949 77.3186 19.0708 77.1866 19.1975ZM74.312 18.921C74.2716 19.0595 74.2604 19.1718 74.2777 19.258C74.2946 19.3446 74.3524 19.3877 74.4501 19.3877C74.5422 19.3877 74.6312 19.339 74.7171 19.241C74.8092 19.1369 74.9069 18.9385 75.0102 18.6441L75.1483 18.2554H75.312L75.1054 18.8862C75.0307 19.1226 74.9299 19.3041 74.8036 19.4308C74.6961 19.5486 74.5634 19.6403 74.4153 19.699C74.2861 19.7493 74.1489 19.7757 74.0102 19.7769C73.6542 19.7769 73.4415 19.6354 73.3724 19.3533C73.336 19.23 73.3244 19.1007 73.3381 18.9728C73.3494 18.8231 73.3837 18.6498 73.4415 18.4544L73.4982 18.24C73.4159 18.4216 73.3335 18.5851 73.2517 18.7308C73.0563 19.0882 72.8466 19.3533 72.6226 19.5257C72.4041 19.6911 72.1372 19.7794 71.8635 19.7769C71.6799 19.7769 71.5131 19.7359 71.3638 19.6559C71.2097 19.5646 71.0866 19.429 71.0103 19.2667C70.9239 19.0882 70.8809 18.8605 70.8809 18.5841C70.8809 18.319 70.9239 18.0303 71.0103 17.7195C71.0963 17.4026 71.22 17.0887 71.3806 16.7775C71.5397 16.4693 71.7398 16.1843 71.9755 15.9303C72.2113 15.6708 72.4727 15.4636 72.7601 15.3077C73.055 15.1517 73.3838 15.0716 73.7172 15.0744C73.8895 15.0744 74.0246 15.1205 74.1223 15.2128C74.1785 15.2626 74.221 15.3257 74.2486 15.4026L74.6481 13.8903C74.7002 13.6944 74.6916 13.5503 74.6225 13.458C74.5535 13.3657 74.378 13.3195 74.0967 13.3195L74.157 13.1385C74.4954 13.1365 74.8329 13.1046 75.1657 13.0431C75.4516 12.982 75.7315 12.8953 76.002 12.7841L74.312 18.921ZM73.6051 17.6328C73.6819 17.4431 73.753 17.2431 73.8174 17.0323L74.1903 15.6231C74.1723 15.539 74.1342 15.4605 74.0793 15.3944C74.0454 15.3546 74.003 15.3231 73.9553 15.3022C73.9075 15.2812 73.8557 15.2713 73.8036 15.2733C73.6312 15.2733 73.4558 15.3426 73.2778 15.4805C73.1049 15.619 72.9412 15.8092 72.7862 16.0513C72.622 16.3047 72.4834 16.5739 72.3724 16.8549C72.2499 17.16 72.1547 17.4754 72.088 17.7975C72.02 18.1098 71.9852 18.4285 71.9842 18.7482C71.9842 18.9672 72.0072 19.1313 72.0533 19.2405C72.1049 19.3446 72.1857 19.3964 72.2947 19.3964C72.4098 19.3964 72.5417 19.3272 72.6911 19.1887C72.841 19.0451 72.9929 18.8431 73.1484 18.5836C73.3275 18.2804 73.4803 17.9623 73.6051 17.6328Z" fill="white" fill-opacity="0.6"/>
<path d="M66.1332 19.6554H67.1935L67.2932 19.2646L67.2881 19.2928C67.3976 18.8892 67.5209 18.5005 67.659 18.1256C67.7931 17.7679 67.9426 17.4161 68.107 17.0713C68.2625 16.7482 68.4175 16.4661 68.573 16.2241C68.728 15.982 68.8773 15.7949 69.0211 15.662C69.1648 15.5236 69.2968 15.4549 69.4175 15.4549C69.5152 15.4549 69.5755 15.4892 69.5985 15.5584C69.6224 15.637 69.6254 15.7204 69.6072 15.8005C69.59 15.8942 69.567 15.9867 69.5382 16.0774L68.7541 18.4543C68.6733 18.6964 68.6272 18.9036 68.616 19.0764C68.6042 19.2492 68.6359 19.3908 68.7106 19.5C68.7684 19.5866 68.8487 19.6528 68.952 19.699C69.0615 19.7502 69.1909 19.7769 69.3402 19.7769C69.4778 19.7769 69.6159 19.7508 69.754 19.699C69.8978 19.6528 70.0297 19.5661 70.1504 19.4395C70.2768 19.3128 70.3806 19.1282 70.4609 18.8861L70.6763 18.2554H70.5126L70.3745 18.6441C70.2655 18.9441 70.1622 19.1425 70.0645 19.2405C69.9724 19.339 69.8835 19.3877 69.797 19.3877C69.7049 19.3877 69.6477 19.3502 69.6246 19.2749C69.6016 19.1949 69.6159 19.0764 69.6676 18.921L70.5126 16.3795C70.5873 16.1549 70.6246 15.9446 70.6246 15.7487C70.6302 15.5472 70.576 15.3856 70.4609 15.2646C70.3515 15.1379 70.1561 15.0749 69.8748 15.0749C69.662 15.0749 69.4579 15.121 69.2625 15.2128C69.0671 15.3051 68.8773 15.4661 68.6937 15.6969C68.5096 15.9215 68.3198 16.2272 68.1244 16.6128C67.9948 16.8729 67.8759 17.1383 67.7679 17.4082L68.0554 16.2846C68.0902 16.1461 68.1157 16.0077 68.1331 15.8697C68.1505 15.7261 68.1444 15.5959 68.1157 15.4805C68.0883 15.3614 68.0178 15.2567 67.9178 15.1866C67.8201 15.1118 67.6764 15.0743 67.4866 15.0743C67.2564 15.0743 67.0467 15.1379 66.8569 15.2646C66.6677 15.3913 66.5122 15.6246 66.3915 15.9646L66.1674 16.6128H66.3311L66.4779 16.2066C66.5812 15.9246 66.6759 15.7313 66.7623 15.6277C66.8544 15.5184 66.9546 15.4636 67.0641 15.4636C67.1444 15.4636 67.1935 15.4866 67.2109 15.5328C67.2334 15.579 67.2395 15.6364 67.2278 15.7056C67.2149 15.7814 67.1976 15.8564 67.1761 15.9302L66.1332 19.6554Z" fill="white" fill-opacity="0.6"/>
<path fill-rule="evenodd" clip-rule="evenodd" d="M63.9358 18.4543L63.9721 18.32C63.88 18.5407 63.7699 18.7534 63.6427 18.9559C63.4586 19.2492 63.2632 19.46 63.0561 19.5866C62.855 19.7133 62.6453 19.7764 62.4269 19.7764C62.1164 19.7764 61.8868 19.6815 61.7374 19.4913C61.5876 19.2954 61.5129 19.0364 61.5129 18.7133C61.5129 18.4138 61.562 18.1 61.6597 17.7713C61.7594 17.432 61.8952 17.1045 62.0648 16.7943C62.2337 16.485 62.4361 16.1952 62.6683 15.9302C62.8736 15.6872 63.115 15.4772 63.3839 15.3077C63.6366 15.1523 63.8898 15.0743 64.1425 15.0743C64.3379 15.0743 64.4872 15.1579 64.591 15.3256C64.6463 15.4113 64.6795 15.522 64.6903 15.6579L64.8151 15.1954C65.0217 15.1897 65.2146 15.1784 65.3926 15.161C65.5767 15.1436 65.7516 15.1149 65.9184 15.0743L64.8064 18.9128C64.783 18.9831 64.7657 19.0554 64.7547 19.1287C64.7482 19.1898 64.7541 19.2515 64.7721 19.3102C64.7951 19.3564 64.8437 19.3795 64.9184 19.3795C65.0105 19.3795 65.1051 19.3308 65.2028 19.2328C65.3005 19.1349 65.4013 18.9354 65.5046 18.6364L65.634 18.2472H65.7977L65.5823 18.8779C65.502 19.1143 65.4013 19.2984 65.2805 19.4318C65.1732 19.5493 65.0406 19.6408 64.8928 19.6995C64.7666 19.7502 64.6319 19.7766 64.4959 19.7774C64.2202 19.7774 64.0248 19.6908 63.9097 19.5179C63.8351 19.3913 63.8064 19.2359 63.8238 19.0513C63.8439 18.8496 63.8814 18.6495 63.9358 18.4543ZM62.875 19.379C62.9788 19.379 63.0965 19.3184 63.2289 19.1974C63.3609 19.0708 63.4959 18.8949 63.634 18.6702C63.7716 18.4456 63.9041 18.1779 64.0305 17.8666C64.1568 17.5554 64.2663 17.2154 64.3583 16.8461L64.3292 16.9969L64.5839 16.0528C64.611 15.8425 64.5962 15.6749 64.5394 15.5502C64.4816 15.4118 64.3839 15.3425 64.2458 15.3425C64.1138 15.3425 63.9732 15.4118 63.8238 15.5497C63.6801 15.6882 63.5363 15.8754 63.3926 16.1118C63.2489 16.3477 63.1164 16.6159 62.9957 16.9154C62.8799 17.2189 62.7877 17.5309 62.72 17.8487C62.6524 18.1583 62.6178 18.4743 62.6167 18.7913C62.6167 19.0046 62.6366 19.1574 62.677 19.2492C62.7231 19.3359 62.7891 19.379 62.875 19.379Z" fill="white" fill-opacity="0.6"/>
<path d="M62.1108 15.3682L62.1368 15.1954H61.1098L61.5159 13.7779C61.3459 13.8199 61.1731 13.8489 60.9988 13.8646C60.8208 13.8815 60.6279 13.8933 60.4213 13.899L60.0505 15.1954H59.2658L59.2229 15.3682H60.0014L59.119 18.4543C59.0443 18.7077 59.0188 18.9354 59.0418 19.1369C59.0704 19.3328 59.1507 19.4887 59.2832 19.6036C59.4208 19.719 59.6193 19.7769 59.8781 19.7769C60.1712 19.7769 60.4238 19.699 60.6366 19.5431C60.8494 19.3877 61.0162 19.1313 61.1369 18.7738L61.3092 18.2554H61.1451L61.0162 18.6097C60.9123 18.8979 60.7977 19.0995 60.6709 19.2149C60.5502 19.3302 60.4295 19.3877 60.3088 19.3877C60.2613 19.3893 60.2142 19.3799 60.1709 19.3603C60.1276 19.3408 60.0894 19.3115 60.0592 19.2749C60.0014 19.2005 59.9957 19.0825 60.0418 18.921L61.0601 15.3682H62.1108ZM59.2556 13.4754C59.1983 13.6251 59.1206 13.8446 59.0229 14.1323C58.9308 14.4143 58.8392 14.7836 58.7472 15.2384H58.5748C58.5917 15.1579 58.6034 15.0743 58.6091 14.9882C58.6201 14.9109 58.6259 14.8329 58.6265 14.7549C58.6265 14.5297 58.5804 14.3343 58.4884 14.1672C58.3999 13.9918 58.258 13.8494 58.0833 13.7605C57.9053 13.6569 57.6751 13.6051 57.3938 13.6051C57.0889 13.6051 56.8301 13.6856 56.6178 13.8472C56.405 14.0025 56.2986 14.2533 56.2986 14.599C56.2986 14.8123 56.3472 15.0143 56.4449 15.2041C56.5488 15.3887 56.6782 15.5702 56.8332 15.7487C56.9943 15.9215 57.1636 16.0974 57.3416 16.2759C57.5201 16.4487 57.6868 16.6277 57.8418 16.8118C57.9968 16.9964 58.1237 17.1923 58.2214 17.3995C58.3247 17.6015 58.3763 17.8231 58.3763 18.0651C58.3763 18.3708 58.3017 18.6328 58.1523 18.8518C58.0066 19.0669 57.8151 19.2469 57.5917 19.379C57.3575 19.5132 57.1048 19.6122 56.8419 19.6728C56.5887 19.7406 56.3279 19.7756 56.0659 19.7769C55.8071 19.7769 55.5918 19.7564 55.4194 19.7164C55.2721 19.6886 55.1297 19.639 54.9969 19.5692C54.884 19.5072 54.7718 19.4439 54.6603 19.3795C54.6096 19.3368 54.551 19.3044 54.488 19.2841C54.4478 19.2638 54.4039 19.252 54.3591 19.2492C54.2839 19.2492 54.221 19.2867 54.1693 19.362C54.1015 19.4746 54.0438 19.593 53.9969 19.7159H53.824C53.9664 19.3644 54.0847 19.0035 54.178 18.6359C54.2465 18.3708 54.3243 18.0395 54.4107 17.6415H54.5831C54.559 17.756 54.5389 17.8713 54.5227 17.9872C54.5053 18.1025 54.4997 18.2179 54.5053 18.3333C54.5227 18.7364 54.646 19.0477 54.8762 19.2667C55.112 19.4856 55.4567 19.5949 55.9104 19.5949C56.2956 19.5949 56.5861 19.5143 56.7815 19.3533C56.9769 19.1861 57.0746 18.9441 57.0746 18.6272C57.0746 18.3851 57.0286 18.1656 56.9365 17.9702C56.8496 17.767 56.7334 17.5776 56.5917 17.4082C56.4456 17.2328 56.2933 17.0628 56.135 16.8984C55.9763 16.734 55.8238 16.5638 55.6777 16.3882C55.5366 16.2137 55.4178 16.0221 55.3243 15.8179C55.2301 15.5997 55.1832 15.3639 55.1867 15.1261C55.1867 14.8384 55.247 14.5877 55.3677 14.3743C55.4893 14.1663 55.6538 13.9865 55.8501 13.8472C56.0514 13.7031 56.276 13.5948 56.514 13.5272C56.7455 13.4539 56.9868 13.416 57.2296 13.4149C57.54 13.4149 57.7958 13.4523 57.9968 13.5277C58.1983 13.602 58.3707 13.6918 58.5144 13.7954L58.6781 13.899C58.7298 13.922 58.7702 13.9333 58.7988 13.9333C58.8791 13.9333 58.9743 13.781 59.0832 13.4754H59.2556Z" fill="white" fill-opacity="0.6"/>
<path fill-rule="evenodd" clip-rule="evenodd" d="M50.9336 19.258C50.9162 19.1718 50.928 19.0595 50.9684 18.921L52.6578 12.7841C52.3873 12.8953 52.1075 12.982 51.8215 13.0431C51.5284 13.101 51.1924 13.1323 50.8129 13.1385L50.7525 13.32C51.0338 13.32 51.2098 13.3662 51.2783 13.4585C51.3474 13.5508 51.3561 13.6944 51.3044 13.8903L50.9044 15.4026C50.8793 15.3296 50.836 15.2643 50.7786 15.2128C50.6809 15.1205 50.5459 15.0744 50.3735 15.0744C50.0282 15.0744 49.7096 15.1523 49.4165 15.3077C49.1217 15.4692 48.8564 15.6797 48.6319 15.9303C48.396 16.1842 48.1958 16.4692 48.037 16.7775C47.8804 17.0774 47.7561 17.3932 47.6662 17.7195C47.5843 18.0005 47.5408 18.2914 47.5367 18.5841C47.5367 18.8605 47.5802 19.0882 47.6662 19.2667C47.7526 19.4395 47.8702 19.5692 48.0196 19.6554C48.169 19.7364 48.3357 19.7764 48.5198 19.7764C48.8012 19.7764 49.0543 19.6933 49.2784 19.5262C49.5024 19.3533 49.7121 19.0882 49.9075 18.7308C49.9894 18.5851 50.0717 18.4216 50.1541 18.24L50.0978 18.4544C50.0455 18.6232 50.0107 18.7969 49.994 18.9728C49.9802 19.1007 49.9919 19.23 50.0282 19.3533C50.0973 19.6354 50.3096 19.7769 50.6666 19.7769C50.7985 19.7769 50.9336 19.7508 51.0717 19.699C51.2098 19.6472 51.3387 19.558 51.4594 19.4308C51.5862 19.3041 51.6865 19.1231 51.7612 18.8862L51.9683 18.2554H51.8047L51.6666 18.6441C51.5632 18.9385 51.4655 19.1369 51.3735 19.2405C51.287 19.339 51.198 19.3877 51.106 19.3877C51.0088 19.3877 50.951 19.3446 50.9336 19.258ZM50.4732 17.0323C50.4088 17.2431 50.3382 17.4436 50.261 17.6328C50.1177 18.0021 49.9653 18.319 49.8042 18.5841C49.6492 18.8431 49.4968 19.0446 49.3474 19.1892C49.1981 19.3272 49.0661 19.3964 48.9505 19.3964C48.8416 19.3964 48.7613 19.3446 48.7096 19.241C48.6636 19.1313 48.6406 18.9672 48.6406 18.7482C48.6406 18.4369 48.6748 18.12 48.7439 17.7975C48.8129 17.4692 48.9075 17.1549 49.0283 16.8554C49.1395 16.5743 49.2783 16.3049 49.4426 16.0513C49.5976 15.8092 49.7612 15.619 49.9336 15.4805C50.1116 15.3421 50.287 15.2733 50.4594 15.2733C50.5745 15.2733 50.6666 15.3139 50.7356 15.3944C50.7837 15.4467 50.8205 15.5226 50.8461 15.6231L50.4732 17.0323Z" fill="white" fill-opacity="0.6"/>
<path d="M43.8495 19.6554H42.7891L43.8326 15.9302C43.8556 15.8497 43.8725 15.7749 43.8837 15.7056C43.8965 15.6477 43.8906 15.5872 43.8668 15.5328C43.8495 15.4866 43.8003 15.4636 43.72 15.4636C43.6111 15.4636 43.5103 15.5184 43.4183 15.6277C43.3323 15.7313 43.2372 15.9246 43.1339 16.2072L42.9876 16.6128H42.8239L43.0479 15.9646C43.1687 15.6246 43.3241 15.3913 43.5134 15.2646C43.7027 15.1379 43.9124 15.0749 44.1425 15.0749C44.3323 15.0749 44.476 15.1118 44.5737 15.1866C44.6739 15.2566 44.7446 15.3613 44.7722 15.4805C44.8008 15.5959 44.8065 15.7256 44.7896 15.8697C44.772 16.0095 44.746 16.148 44.7118 16.2846L44.4244 17.4087C44.5461 17.1066 44.6648 16.842 44.7809 16.6128C44.9763 16.2272 45.1655 15.9215 45.3497 15.6969C45.5338 15.4661 45.7231 15.3051 45.9184 15.2128C46.1143 15.1205 46.3179 15.0743 46.5307 15.0743C46.812 15.0743 47.0079 15.1379 47.1169 15.2646C47.232 15.3856 47.2867 15.5466 47.2806 15.7487C47.2806 15.9446 47.2437 16.1549 47.1685 16.3795L46.3241 18.921C46.2719 19.0764 46.2576 19.1949 46.2806 19.2749C46.3036 19.3502 46.3614 19.3877 46.4535 19.3877C46.5394 19.3877 46.6284 19.339 46.7205 19.241C46.8182 19.1425 46.9215 18.9436 47.0309 18.6441L47.1691 18.2554H47.3327L47.1169 18.8861C47.0366 19.1282 46.9327 19.3128 46.8069 19.44C46.6986 19.5586 46.562 19.6477 46.41 19.699C46.2779 19.7498 46.1377 19.7762 45.9962 19.7769C45.8468 19.7769 45.7174 19.7508 45.6085 19.699C45.5046 19.6528 45.4243 19.5861 45.3671 19.5C45.2924 19.3908 45.2607 19.2492 45.2719 19.0764C45.2837 18.9036 45.3297 18.6964 45.41 18.4543L46.1947 16.0774C46.2233 15.9851 46.2463 15.8928 46.2637 15.8005C46.2818 15.7204 46.2788 15.637 46.255 15.5584C46.232 15.4892 46.1716 15.4549 46.0739 15.4549C45.9532 15.4549 45.8208 15.5241 45.6775 15.662C45.5338 15.7949 45.3839 15.982 45.229 16.2241C45.0569 16.4968 44.9015 16.7797 44.7635 17.0713C44.6085 17.3943 44.4586 17.7451 44.3149 18.1256C44.1768 18.5 44.0541 18.8892 43.9446 19.2928L43.9497 19.2646L43.8495 19.6554Z" fill="white" fill-opacity="0.6"/>
<path fill-rule="evenodd" clip-rule="evenodd" d="M40.6281 18.32L40.5923 18.4544C40.538 18.6496 40.5003 18.8491 40.4797 19.0508C40.4623 19.2354 40.491 19.3908 40.5657 19.5174C40.6807 19.6903 40.8761 19.7769 41.1523 19.7769C41.2998 19.7759 41.4454 19.7446 41.5803 19.6851C41.7152 19.6256 41.8366 19.539 41.937 19.4308C42.0577 19.2985 42.1579 19.1139 42.2388 18.878L42.4536 18.2472H42.2899L42.161 18.6359C42.0572 18.9354 41.9564 19.1344 41.8592 19.2323C41.7615 19.3298 41.6664 19.379 41.5748 19.379C41.4996 19.379 41.4511 19.3559 41.428 19.3098C41.4101 19.251 41.4041 19.1893 41.4106 19.1282C41.4224 19.0533 41.4393 18.9816 41.4628 18.9123L42.5748 15.0744C42.4018 15.1158 42.2261 15.1448 42.049 15.161C41.8705 15.1785 41.6782 15.1898 41.471 15.1954L41.3462 15.658C41.3409 15.5405 41.3068 15.4262 41.247 15.3251C41.2021 15.2464 41.1367 15.1815 41.0577 15.1373C40.9788 15.0931 40.8893 15.0714 40.7989 15.0744C40.5457 15.0744 40.2925 15.1523 40.0398 15.3077C39.7872 15.4636 39.5488 15.6708 39.3243 15.9303C39.092 16.1952 38.8896 16.485 38.7207 16.7944C38.5512 17.1045 38.4153 17.432 38.3156 17.7713C38.2216 18.0765 38.1723 18.3939 38.1693 18.7133C38.1693 19.0364 38.244 19.2954 38.3933 19.4913C38.5427 19.6815 38.7729 19.7764 39.0828 19.7764C39.3012 19.7764 39.5115 19.7133 39.712 19.5867C39.9191 19.4595 40.115 19.2492 40.2987 18.9559C40.4127 18.779 40.5222 18.5672 40.6281 18.32ZM39.8849 19.1974C39.7529 19.3185 39.6347 19.379 39.5314 19.379C39.445 19.379 39.379 19.3359 39.333 19.2492C39.2931 19.1569 39.2726 19.0046 39.2726 18.7913C39.2726 18.4857 39.3074 18.1718 39.3764 17.8492C39.445 17.5262 39.537 17.2154 39.6521 16.9159C39.7728 16.6159 39.9048 16.3482 40.0485 16.1118C40.1923 15.8759 40.336 15.6882 40.4797 15.5498C40.6291 15.4113 40.7697 15.3426 40.9022 15.3426C41.0403 15.3426 41.1375 15.4118 41.1953 15.5498C41.2526 15.6749 41.2669 15.8426 41.2398 16.0523L40.9851 16.9969L41.0142 16.8467C40.9222 17.2154 40.8132 17.5554 40.6869 17.8667C40.56 18.1774 40.4281 18.4457 40.29 18.6703C40.1519 18.8949 40.0168 19.0708 39.8849 19.1974Z" fill="white" fill-opacity="0.6"/>
<path d="M35.8635 19.6554H34.8032L35.8375 15.9303C35.8891 15.7574 35.9065 15.6364 35.8891 15.5672C35.8722 15.4979 35.8206 15.4636 35.7341 15.4636C35.6252 15.4636 35.5244 15.5185 35.4324 15.6277C35.3403 15.7369 35.2457 15.9303 35.148 16.2072L35.0012 16.6128H34.8375L35.0615 15.9646C35.1423 15.7338 35.2426 15.5559 35.3633 15.4287C35.484 15.2964 35.6165 15.2041 35.7602 15.1523C35.9034 15.1005 36.0502 15.0744 36.2001 15.0744C36.3837 15.0744 36.5188 15.1118 36.6047 15.1872C36.6961 15.2607 36.7576 15.3652 36.7776 15.481C36.8062 15.602 36.8119 15.7344 36.7945 15.8785C36.7832 16.0169 36.7602 16.1523 36.7254 16.2846L36.5873 16.8267L36.6011 16.7892L36.6221 16.7344C36.7832 16.3251 36.9382 15.9995 37.0876 15.7574C37.2431 15.5097 37.4067 15.3338 37.5791 15.2303C37.748 15.1273 37.9421 15.0734 38.1397 15.0744C38.3463 15.0744 38.5044 15.1349 38.6139 15.2559C38.7284 15.3769 38.7862 15.5267 38.7862 15.7056C38.7862 15.8492 38.7514 15.9851 38.6824 16.1118C38.6155 16.2306 38.5209 16.3314 38.4067 16.4056C38.2928 16.4761 38.161 16.512 38.0272 16.5092C37.884 16.5092 37.7689 16.4718 37.6824 16.3969C37.6021 16.322 37.5617 16.2123 37.5617 16.0687C37.5617 15.9415 37.5904 15.8267 37.6482 15.7226C37.7054 15.619 37.7801 15.5328 37.8722 15.4636C37.9643 15.3887 38.0645 15.3369 38.174 15.3077C38.1618 15.2959 38.1471 15.2871 38.131 15.282C38.1196 15.2782 38.1077 15.2756 38.0957 15.2744C38.0872 15.2735 38.0787 15.2732 38.0701 15.2733C37.9443 15.2733 37.8144 15.3195 37.6824 15.4118C37.5505 15.4979 37.4124 15.6395 37.2686 15.8354C37.1254 16.0313 36.9786 16.2903 36.8287 16.6128C36.6602 16.9942 36.5107 17.3837 36.3807 17.78C36.3157 17.9713 36.2502 18.1779 36.1848 18.399L35.8635 19.6554Z" fill="white" fill-opacity="0.6"/>
<path fill-rule="evenodd" clip-rule="evenodd" d="M34.2508 13.8559C33.9633 13.6482 33.5035 13.5446 32.8713 13.5446C32.6759 13.5446 32.4805 13.5477 32.2846 13.5533C32.0953 13.559 31.8769 13.562 31.6299 13.562H31.1987C31.0432 13.5559 30.8969 13.5533 30.7588 13.5533C30.6438 13.5482 30.5289 13.5424 30.4141 13.5359L30.3711 13.7087C30.5951 13.7087 30.7475 13.7374 30.8279 13.7954C30.9143 13.8467 30.9542 13.9277 30.9486 14.0374C30.937 14.1774 30.9139 14.3161 30.8795 14.4523L29.7414 18.7395C29.6903 18.9467 29.6325 19.1026 29.5691 19.2061C29.5118 19.3052 29.4197 19.3793 29.3108 19.4138C29.2013 19.4482 29.0489 19.4713 28.8535 19.4826L28.8192 19.6554C28.9164 19.6502 29.0346 19.6472 29.1721 19.6472C29.3102 19.641 29.457 19.6385 29.612 19.6385C30.0459 19.6252 30.4801 19.6281 30.9138 19.6472C31.1496 19.6523 31.3654 19.6559 31.5608 19.6559C31.9342 19.6559 32.2877 19.6179 32.6212 19.5431C32.9285 19.4732 33.2226 19.3537 33.4917 19.1892C33.7325 19.0454 33.9363 18.8469 34.0866 18.6097C34.2359 18.379 34.3106 18.1087 34.3106 17.7974C34.3106 17.4456 34.1674 17.1431 33.8799 16.8897C33.5986 16.6359 33.1526 16.4861 32.5434 16.44C32.9235 16.3853 33.2928 16.2716 33.638 16.1031C33.9602 15.9359 34.2129 15.7313 34.3971 15.4892C34.5824 15.2594 34.6829 14.9725 34.6815 14.6769C34.6815 14.3313 34.5387 14.0574 34.2508 13.8559ZM31.4989 16.5528L30.9225 18.7395C30.8882 18.8831 30.8652 19.0102 30.8539 19.1195C30.8478 19.2292 30.8764 19.3128 30.9399 19.3708C31.0033 19.4282 31.1209 19.4569 31.2933 19.4569C31.7015 19.4569 32.035 19.379 32.2933 19.2236C32.5464 19.0744 32.748 18.8513 32.8713 18.5841C32.9976 18.3072 33.0605 17.9959 33.0605 17.6508C33.0605 17.4369 33.0232 17.2497 32.9485 17.0887C32.8828 16.9251 32.7645 16.7882 32.6125 16.6995C32.4575 16.6015 32.2503 16.5528 31.9915 16.5528H31.4989ZM31.5378 16.4056H31.9317C32.259 16.4056 32.5378 16.322 32.7674 16.1549C33.0032 15.982 33.1817 15.7574 33.3025 15.481C33.4282 15.2072 33.4928 14.9091 33.4917 14.6077C33.4917 14.3195 33.4344 14.0979 33.3193 13.942C33.2104 13.7867 33.0176 13.7087 32.7414 13.7087C32.5408 13.7087 32.3971 13.7492 32.3107 13.8297C32.2247 13.9046 32.1501 14.0687 32.0866 14.322L31.5378 16.4056Z" fill="white" fill-opacity="0.6"/>
</g>
<defs>
<clipPath id="clip0_198_68">
<rect width="89" height="20" fill="white"/>
</clipPath>
</defs>
</svg>
