<svg width="100" height="22" viewBox="0 0 100 22" fill="none" xmlns="http://www.w3.org/2000/svg">
<path d="M17.4984 3.5V5.16667C17.4984 13.1892 13.0209 16.8333 7.49839 16.8333H5.91339C6.09006 14.3233 6.87173 12.8042 8.91173 10.9992C9.91506 10.1117 9.83006 9.59917 9.33589 9.89333C5.93256 11.9183 4.24173 14.655 4.16673 19.025L4.16423 19.3333H2.49756C2.49756 18.1975 2.59423 17.1667 2.78589 16.2233C2.59478 15.145 2.49895 13.6817 2.49839 11.8333C2.49839 7.23083 6.22923 3.5 10.8317 3.5C12.4984 3.5 14.1651 4.33333 17.4984 3.5Z" fill="#0D7377"/>
<path d="M31.936 17L28.08 5.48H29.56L32.912 15.488L36.296 5.48H37.776L33.92 17H31.936ZM41.7703 17.24C40.9223 17.24 40.1809 17.0533 39.5463 16.68C38.9169 16.3013 38.4263 15.776 38.0743 15.104C37.7223 14.4267 37.5463 13.6373 37.5463 12.736C37.5463 11.792 37.7196 10.976 38.0663 10.288C38.4129 9.59467 38.8956 9.06133 39.5143 8.688C40.1383 8.30933 40.8689 8.12 41.7063 8.12C42.5756 8.12 43.3143 8.32 43.9223 8.72C44.5356 9.12 44.9943 9.69067 45.2983 10.432C45.6076 11.1733 45.7409 12.056 45.6983 13.08H44.2583V12.568C44.2423 11.5067 44.0263 10.7147 43.6103 10.192C43.1943 9.664 42.5756 9.4 41.7543 9.4C40.8743 9.4 40.2049 9.68267 39.7463 10.248C39.2876 10.8133 39.0583 11.624 39.0583 12.68C39.0583 13.6987 39.2876 14.488 39.7463 15.048C40.2049 15.608 40.8583 15.888 41.7063 15.888C42.2769 15.888 42.7729 15.7573 43.1943 15.496C43.6156 15.2347 43.9463 14.8587 44.1863 14.368L45.5543 14.84C45.2183 15.6027 44.7116 16.1947 44.0343 16.616C43.3623 17.032 42.6076 17.24 41.7703 17.24ZM38.5783 13.08V11.936H44.9623V13.08H38.5783ZM47.4794 17V8.36H48.7514V10.448L48.5434 10.176C48.6447 9.90933 48.7754 9.664 48.9354 9.44C49.1007 9.216 49.2847 9.032 49.4874 8.888C49.7114 8.70667 49.9647 8.568 50.2474 8.472C50.53 8.376 50.818 8.32 51.1114 8.304C51.4047 8.28267 51.6794 8.30133 51.9354 8.36V9.696C51.6367 9.616 51.3087 9.59467 50.9514 9.632C50.594 9.66933 50.2634 9.8 49.9594 10.024C49.682 10.2213 49.466 10.4613 49.3114 10.744C49.162 11.0267 49.058 11.3333 48.9994 11.664C48.9407 11.9893 48.9114 12.3227 48.9114 12.664V17H47.4794ZM56.6839 17.24C55.8785 17.24 55.1879 17.04 54.6119 16.64C54.0359 16.2347 53.5905 15.688 53.2759 15C52.9665 14.312 52.8119 13.536 52.8119 12.672C52.8119 11.808 52.9665 11.032 53.2759 10.344C53.5905 9.656 54.0359 9.11467 54.6119 8.72C55.1879 8.32 55.8759 8.12 56.6759 8.12C57.4919 8.12 58.1772 8.31733 58.7319 8.712C59.2865 9.10667 59.7052 9.648 59.9879 10.336C60.2759 11.024 60.4199 11.8027 60.4199 12.672C60.4199 13.5307 60.2759 14.3067 59.9879 15C59.7052 15.688 59.2865 16.2347 58.7319 16.64C58.1772 17.04 57.4945 17.24 56.6839 17.24ZM56.8599 15.936C57.4412 15.936 57.9185 15.7973 58.2919 15.52C58.6652 15.2373 58.9399 14.8507 59.1159 14.36C59.2972 13.864 59.3879 13.3013 59.3879 12.672C59.3879 12.032 59.2972 11.4693 59.1159 10.984C58.9399 10.4933 58.6679 10.112 58.2999 9.84C57.9319 9.56267 57.4652 9.424 56.8999 9.424C56.3132 9.424 55.8279 9.568 55.4439 9.856C55.0652 10.144 54.7825 10.5333 54.5959 11.024C54.4145 11.5147 54.3239 12.064 54.3239 12.672C54.3239 13.2853 54.4172 13.84 54.6039 14.336C54.7905 14.8267 55.0705 15.216 55.4439 15.504C55.8225 15.792 56.2945 15.936 56.8599 15.936ZM59.3879 17V10.64H59.2279V5.48H60.6599V17H59.3879ZM66.6453 17.24C65.7973 17.24 65.0559 17.0533 64.4213 16.68C63.7919 16.3013 63.3013 15.776 62.9493 15.104C62.5973 14.4267 62.4213 13.6373 62.4213 12.736C62.4213 11.792 62.5946 10.976 62.9413 10.288C63.2879 9.59467 63.7706 9.06133 64.3893 8.688C65.0133 8.30933 65.7439 8.12 66.5813 8.12C67.4506 8.12 68.1893 8.32 68.7973 8.72C69.4106 9.12 69.8693 9.69067 70.1733 10.432C70.4826 11.1733 70.6159 12.056 70.5733 13.08H69.1333V12.568C69.1173 11.5067 68.9013 10.7147 68.4853 10.192C68.0693 9.664 67.4506 9.4 66.6293 9.4C65.7493 9.4 65.0799 9.68267 64.6213 10.248C64.1626 10.8133 63.9333 11.624 63.9333 12.68C63.9333 13.6987 64.1626 14.488 64.6213 15.048C65.0799 15.608 65.7333 15.888 66.5813 15.888C67.1519 15.888 67.6479 15.7573 68.0693 15.496C68.4906 15.2347 68.8213 14.8587 69.0613 14.368L70.4293 14.84C70.0933 15.6027 69.5866 16.1947 68.9093 16.616C68.2373 17.032 67.4826 17.24 66.6453 17.24ZM63.4533 13.08V11.936H69.8373V13.08H63.4533ZM78.272 17V12.672C78.272 12.2613 78.2347 11.8667 78.16 11.488C78.0907 11.1093 77.9653 10.7707 77.784 10.472C77.608 10.168 77.368 9.928 77.064 9.752C76.7653 9.576 76.3867 9.488 75.928 9.488C75.5707 9.488 75.2453 9.54933 74.952 9.672C74.664 9.78933 74.416 9.97067 74.208 10.216C74 10.4613 73.8373 10.7707 73.72 11.144C73.608 11.512 73.552 11.9467 73.552 12.448L72.616 12.16C72.616 11.3227 72.7653 10.6053 73.064 10.008C73.368 9.40533 73.792 8.944 74.336 8.624C74.8853 8.29867 75.5307 8.136 76.272 8.136C76.832 8.136 77.3093 8.224 77.704 8.4C78.0987 8.576 78.4267 8.81067 78.688 9.104C78.9493 9.392 79.1547 9.71733 79.304 10.08C79.4533 10.4373 79.5573 10.8027 79.616 11.176C79.68 11.544 79.712 11.8933 79.712 12.224V17H78.272ZM72.112 17V8.36H73.392V10.672H73.552V17H72.112ZM86.6159 17C86.1039 17.1013 85.5972 17.1413 85.0959 17.12C84.5999 17.104 84.1572 17.0053 83.7679 16.824C83.3785 16.6373 83.0825 16.3493 82.8799 15.96C82.7092 15.6187 82.6159 15.2747 82.5999 14.928C82.5892 14.576 82.5839 14.1787 82.5839 13.736V5.96H84.0079V13.672C84.0079 14.024 84.0105 14.3253 84.0159 14.576C84.0265 14.8267 84.0825 15.0427 84.1839 15.224C84.3759 15.5653 84.6799 15.7653 85.0959 15.824C85.5172 15.8827 86.0239 15.8667 86.6159 15.776V17ZM80.8319 9.536V8.36H86.6159V9.536H80.8319ZM88.53 6.832V5.36H89.954V6.832H88.53ZM88.53 17V8.36H89.954V17H88.53ZM91.3944 17L94.6984 12.632L91.4664 8.36H93.1624L95.5304 11.528L97.8744 8.36H99.5704L96.3384 12.632L99.6504 17H97.9464L95.5304 13.736L93.0984 17H91.3944Z" fill="#0D7377"/>
</svg>
