<svg width="21" height="19" viewBox="0 0 21 19" fill="none" xmlns="http://www.w3.org/2000/svg">
<path d="M20.0306 4.28105L17.2274 7.08417C16.6612 13.6485 11.1252 18.7504 4.49992 18.7504C3.13867 18.7504 2.01649 18.5348 1.1643 18.1092C0.477112 17.7651 0.195862 17.3967 0.12555 17.2917C0.0628537 17.1977 0.0222163 17.0907 0.00667402 16.9787C-0.00886824 16.8668 0.00108658 16.7528 0.0357942 16.6453C0.0705019 16.5377 0.129065 16.4394 0.207108 16.3577C0.285151 16.2759 0.380656 16.2129 0.486487 16.1732C0.510862 16.1639 2.75899 15.3004 4.1868 13.657C3.39497 13.006 2.70375 12.2414 2.13555 11.3882C0.97305 9.6623 -0.328201 6.66417 0.0730494 2.18386C0.0857678 2.0415 0.138901 1.90573 0.226192 1.79256C0.313484 1.67938 0.431298 1.5935 0.56576 1.54503C0.700223 1.49657 0.845735 1.48753 0.98516 1.51899C1.12458 1.55045 1.25212 1.6211 1.35274 1.72261C1.38555 1.75542 4.47274 4.82574 8.24711 5.82136V5.25042C8.24568 4.65173 8.36405 4.0588 8.59525 3.50655C8.82645 2.9543 9.16582 2.4539 9.59336 2.0348C10.0086 1.62017 10.5026 1.2929 11.0464 1.07231C11.5901 0.851718 12.1726 0.74227 12.7593 0.750424C13.5464 0.758188 14.3181 0.969474 14.9993 1.36374C15.6806 1.75801 16.2483 2.32184 16.6471 3.00042H19.4999C19.6483 3.00031 19.7935 3.04423 19.9169 3.12663C20.0404 3.20904 20.1366 3.32621 20.1934 3.46333C20.2502 3.60045 20.2651 3.75134 20.2361 3.8969C20.2071 4.04247 20.1356 4.17616 20.0306 4.28105Z" fill="white"/>
</svg>
