<svg width="20" height="20" viewBox="0 0 20 20" fill="none" xmlns="http://www.w3.org/2000/svg">
<path d="M19.75 10.0003C19.7469 12.3833 18.8726 14.6829 17.2917 16.4659C15.7109 18.249 13.5326 19.3925 11.1671 19.681C11.1145 19.6869 11.0611 19.6817 11.0107 19.6655C10.9602 19.6493 10.9137 19.6227 10.8743 19.5872C10.8348 19.5518 10.8034 19.5084 10.782 19.4599C10.7605 19.4114 10.7496 19.359 10.75 19.306V12.2503H13C13.1028 12.2506 13.2045 12.2297 13.2989 12.1889C13.3933 12.1481 13.4783 12.0884 13.5487 12.0134C13.619 11.9384 13.6732 11.8498 13.7078 11.7529C13.7424 11.6561 13.7568 11.5532 13.75 11.4507C13.7334 11.2578 13.6444 11.0784 13.5009 10.9484C13.3574 10.8185 13.1701 10.7477 12.9765 10.7503H10.75V8.50034C10.75 8.10252 10.908 7.72099 11.1893 7.43968C11.4706 7.15838 11.8521 7.00034 12.25 7.00034H13.75C13.8528 7.00057 13.9545 6.97965 14.0489 6.93889C14.1433 6.89813 14.2283 6.8384 14.2987 6.76341C14.369 6.68841 14.4232 6.59976 14.4578 6.50295C14.4924 6.40614 14.5068 6.30325 14.5 6.20065C14.4834 6.00747 14.3941 5.82776 14.2502 5.69779C14.1063 5.56782 13.9185 5.49726 13.7246 5.50034H12.25C11.4543 5.50034 10.6912 5.81641 10.1286 6.37902C9.56603 6.94163 9.24996 7.70469 9.24996 8.50034V10.7503H6.99996C6.89714 10.7501 6.79538 10.771 6.70099 10.8118C6.60659 10.8526 6.52159 10.9123 6.45126 10.9873C6.38092 11.0623 6.32676 11.1509 6.29213 11.2477C6.2575 11.3445 6.24314 11.4474 6.24996 11.55C6.26655 11.7432 6.35579 11.9229 6.49968 12.0529C6.64357 12.1829 6.83139 12.2534 7.02527 12.2503H9.24996V19.3078C9.25028 19.3608 9.2394 19.4131 9.21803 19.4616C9.19666 19.51 9.16528 19.5533 9.12596 19.5887C9.08665 19.6241 9.04028 19.6508 8.98991 19.6671C8.93954 19.6833 8.8863 19.6887 8.83371 19.6828C6.40498 19.3871 4.1758 18.1903 2.5874 16.3293C0.999005 14.4683 0.167161 12.0788 0.25652 9.63378C0.44402 4.57128 4.54464 0.455655 9.61089 0.25878C10.9225 0.207973 12.231 0.422234 13.4579 0.888747C14.6848 1.35526 15.8051 2.06444 16.7516 2.97387C17.6981 3.8833 18.4515 4.9743 18.9667 6.1816C19.4819 7.3889 19.7483 8.68771 19.75 10.0003Z" fill="white"/>
</svg>
